<svg width="222" height="159" viewBox="0 0 222 159" fill="none" xmlns="http://www.w3.org/2000/svg">
<path d="M93.0547 17.8656L93.4638 18.153L93.0547 17.8656C93.0246 17.9084 92.988 17.9462 92.9462 17.9776L93.2468 18.3772L92.9462 17.9777L85.2474 23.7704C85.1349 23.855 84.9919 23.8883 84.8537 23.8621L75.0329 22.0014C74.5964 21.9187 74.1457 22.0337 73.8023 22.3155L67.7455 27.2847C67.483 27.5001 67.3013 27.7982 67.2302 28.1302L66.03 33.7347C65.9844 33.9475 65.8065 34.1064 65.5899 34.1277L60.9165 34.5861C60.6283 34.6144 60.3764 34.3926 60.3679 34.1031L60.2459 29.9323C60.2177 28.966 59.2961 28.2783 58.3617 28.5264L55.2644 29.3486C54.9315 29.437 54.6391 29.6373 54.4364 29.9159L52.0901 33.1405C52.0146 33.2443 51.9527 33.3574 51.906 33.4769L48.6002 41.9338C48.5147 42.1523 48.2888 42.2821 48.0569 42.2457L42.5306 41.3782C42.3851 41.3554 42.2371 41.3541 42.0912 41.3744L35.8093 42.249C35.068 42.3522 34.5161 42.9861 34.5161 43.7347V56.4331C34.5161 56.4982 34.5035 56.5626 34.4788 56.6228L31.805 63.1462C31.781 63.2047 31.7461 63.2582 31.7022 63.3037L1.13371 94.9841C0.792586 95.3377 0.646202 95.8358 0.741845 96.3177L2.32778 104.308C2.36434 104.492 2.29463 104.681 2.14729 104.798L1.35187 105.426C0.870533 105.806 0.669213 106.441 0.843545 107.029L2.60202 112.962C2.82776 113.723 3.60807 114.177 4.38155 113.996L11.2209 112.397C11.4807 112.337 11.7423 112.491 11.8155 112.747L11.9417 113.189C12.1519 113.925 12.8827 114.385 13.6373 114.255L16.5236 113.761C16.7694 113.719 17.0087 113.864 17.0844 114.102L18.1482 117.442C18.3908 118.203 19.188 118.641 19.9607 118.436L30.4374 115.668C30.7042 115.597 30.9777 115.756 31.0484 116.023L33.1758 124.051C33.383 124.832 34.1722 125.309 34.9604 125.129L40.0725 123.959C40.9029 123.769 41.4086 122.926 41.1856 122.104L40.6551 120.149C40.5605 119.8 40.8555 119.469 41.2127 119.523L45.5568 120.182C45.7962 120.219 45.9752 120.422 45.9816 120.664L46.3253 133.648C46.3299 133.819 46.2471 133.98 46.1059 134.075L40.496 137.874C40.2864 138.016 40.1162 138.209 40.0011 138.434L37.4436 143.444C37.3513 143.624 37.1588 143.732 36.9566 143.715L30.1385 143.144C29.9899 143.131 29.8546 143.053 29.7695 142.931L27.0299 138.985L26.6192 139.27L27.0299 138.985C26.682 138.484 26.0654 138.244 25.4702 138.377L24.4597 138.603C23.8018 138.75 23.3229 139.319 23.2893 139.992L22.9645 146.491C22.9235 147.312 23.5515 148.013 24.3724 148.063L38.7527 148.93C39.1534 148.954 39.5472 148.816 39.8457 148.548L41.166 147.361L40.8317 146.989L41.166 147.361C41.2436 147.291 41.3412 147.248 41.445 147.236L42.7742 147.088C43.0336 147.059 43.2716 147.235 43.3206 147.491L44.324 152.744C44.3818 153.046 44.5314 153.324 44.7523 153.538L48.4181 157.098C48.8063 157.476 49.3675 157.614 49.8867 157.461L60.2719 154.405C61.0371 154.18 61.4922 153.395 61.3077 152.619L56.6494 133.019C56.5866 132.754 56.7462 132.488 57.0089 132.419L58.4408 132.043C58.4935 132.029 58.5482 132.024 58.6026 132.028L67.9103 132.676C67.9439 132.678 67.9771 132.684 68.0095 132.693L85.2697 137.492C85.5648 137.574 85.7174 137.9 85.5916 138.179L84.8416 139.843C84.6277 140.318 84.6752 140.869 84.967 141.3L86.4072 143.428C86.6404 143.772 87.0062 144.004 87.4171 144.069L91.9504 144.779C92.0479 144.795 92.1387 144.838 92.2114 144.905L95.1329 147.592C95.4856 147.916 95.9719 148.052 96.4417 147.958L106.589 145.934C106.643 145.923 106.699 145.921 106.753 145.928L112.633 146.713C113.196 146.788 113.753 146.539 114.072 146.069L121.658 134.906C121.805 134.689 121.893 134.437 121.913 134.175L122.582 125.256C122.59 125.148 122.587 125.04 122.572 124.934L120.555 110.657C120.519 110.407 120.675 110.171 120.918 110.105L136.721 105.795C136.929 105.738 137.122 105.637 137.288 105.499L170.601 77.6682C170.798 77.5043 171.086 77.5148 171.27 77.6925L174.023 80.355C174.373 80.6938 174.866 80.8412 175.345 80.7505L180.445 79.7835C180.842 79.7083 181.191 79.4764 181.415 79.1404L180.999 78.8635L181.415 79.1404L186.748 71.1208C186.858 70.9558 187.055 70.8711 187.25 70.905L195.16 72.2779C195.385 72.3171 195.555 72.5046 195.573 72.733L195.717 74.6495C195.763 75.2564 196.171 75.7754 196.75 75.9634L205.574 78.8288C205.684 78.8646 205.798 78.8875 205.914 78.897L215.403 79.6808C215.77 79.7111 216.135 79.6054 216.429 79.3839L220.619 76.2272C221.334 75.6883 221.421 74.6468 220.805 73.997L214.122 66.9504C213.91 66.7269 213.634 66.5741 213.332 66.5127L208.546 65.5395C208.306 65.4907 208.137 65.2753 208.146 65.0307L209.209 36.8517C209.244 35.8993 208.395 35.1553 207.455 35.3169L168.306 42.0495C167.977 42.1061 167.686 41.8302 167.725 41.4985L169.865 23.2684C169.959 22.4635 169.397 21.7291 168.595 21.6098L156.51 19.8118C156.453 19.8033 156.397 19.7847 156.346 19.7571L149.203 15.8942C149.053 15.813 148.89 15.7581 148.721 15.7317L122.678 11.6475C122.426 11.6078 122.243 11.3837 122.256 11.1282L122.575 4.8447C122.615 4.05414 122.034 3.36849 121.248 3.27842L101.905 1.06303C101.223 0.98499 100.576 1.37901 100.332 2.02002L95.803 13.9275C95.7882 13.9663 95.7687 14.0032 95.7448 14.0372L93.0547 17.8656Z" fill="#F5F5F5" stroke="#D6D6D6" stroke-linejoin="round"/>
</svg>
