<svg width="237" height="252" viewBox="0 0 237 252" fill="none" xmlns="http://www.w3.org/2000/svg">
<mask id="path-1-outside-1_2_32" maskUnits="userSpaceOnUse" x="-0.488647" y="0.213226" width="237" h eight="252" fill="black">
<rect fill="white" x="-0.488647" y="0.213226" width="237" height="252"/>
<path d="M234.814 179.794C234.9 179.585 234.937 179.357 234.92 179.131L234.038 166.858C234.013 166.506 233.738 166.222 233.386 166.184C233.039 166.148 232.767 165.872 232.735 165.524L231.323 150.043C231.308 149.873 231.263 149.708 231.191 149.554L222.951 131.965C222.589 131.192 222.995 130.278 223.81 130.028C224.632 129.777 225.036 128.853 224.663 128.079L222.079 122.713C222.014 122.577 221.97 122.433 221.948 122.284L219.97 108.429C219.883 107.818 219.422 107.326 218.817 107.2L216.546 106.727C215.814 106.574 215.314 105.896 215.384 105.152L217.066 87.4412C217.107 87.0103 217.336 86.6194 217.692 86.3732L218.851 85.5714C219.132 85.3771 219.337 85.0909 219.429 84.7621L223.843 69.0744C223.869 68.9821 223.904 68.8926 223.948 68.8071L228.48 59.8881C228.563 59.7255 228.615 59.5489 228.632 59.3675L228.767 58.0069C228.823 57.4375 229.205 56.9527 229.746 56.765L231.583 56.127C231.833 56.0402 232.055 55.8875 232.226 55.6849L235.05 52.3239C235.325 51.9962 235.444 51.5644 235.374 51.142L235.136 49.6931C235.094 49.4368 234.985 49.1963 234.819 48.9961L227.036 39.586C226.821 39.3257 226.522 39.1476 226.191 39.0819L220.459 37.9454C220.055 37.8652 219.636 37.9587 219.304 38.203L214.952 41.4068C214.551 41.7016 214.327 42.1793 214.357 42.6757L214.807 50.2271C214.833 50.6654 214.662 51.0924 214.339 51.3907L209.723 55.667C209.452 55.9183 209.096 56.0578 208.726 56.0578H206.217C205.953 56.0578 205.694 55.9867 205.468 55.8519L198.647 51.7979C198.482 51.6996 198.299 51.6347 198.108 51.6071L194.152 51.033C193.138 50.886 192.29 51.7965 192.508 52.7972L193.536 57.5193C193.624 57.9219 193.538 58.3429 193.3 58.6792L191.104 61.7814C190.714 62.332 190.75 63.0774 191.191 63.588L194.077 66.9293C194.541 67.4664 194.554 68.2587 194.107 68.8106L193.118 70.0342C192.794 70.435 192.284 70.6364 191.773 70.5648L177.984 68.6301C177.507 68.5632 177.093 68.2666 176.877 67.8364L175.224 64.5509C174.956 64.0184 175.037 63.3767 175.429 62.9275L182.729 54.5553C182.921 54.3355 183.042 54.0636 183.079 53.7743L185.133 37.4478C185.163 37.2128 185.249 36.9885 185.384 36.794L192.095 27.1338C192.55 26.4793 192.399 25.5816 191.755 25.1117L182.227 18.1551C182.083 18.0496 181.92 17.9713 181.747 17.9243L173.213 15.6032C172.8 15.4909 172.457 15.2037 172.273 14.817L167.248 4.23745C166.961 3.63483 166.305 3.30121 165.649 3.42549L161.486 4.21482C161.017 4.30361 160.535 4.15938 160.193 3.82804L157.915 1.62569C157.376 1.10428 156.53 1.07354 155.955 1.55444L123.042 29.0503C122.88 29.1856 122.691 29.2843 122.487 29.3398L107.18 33.5145C106.467 33.709 106.01 34.4034 106.113 35.1352L108.066 48.9545C108.08 49.0588 108.084 49.1644 108.076 49.2695L107.42 58.0143C107.401 58.2703 107.315 58.5168 107.17 58.7291L99.8167 69.5501C99.5045 70.0094 98.9597 70.2532 98.4092 70.1797L92.8926 69.4437C92.7324 69.4223 92.5699 69.4276 92.4115 69.4592L82.5728 71.4224C82.1133 71.5141 81.6376 71.3807 81.2926 71.0636L78.65 68.6336C78.4368 68.4376 78.1703 68.309 77.8841 68.2642L73.6912 67.607C73.2893 67.5441 72.9315 67.317 72.7035 66.9801L71.5234 65.2369C71.2379 64.8153 71.1915 64.2758 71.4007 63.8116L71.9035 62.6959C72.2426 61.9436 71.8947 61.0597 71.1338 60.7403L67.1309 59.0598C67.0483 59.0252 66.9626 58.9981 66.8751 58.9791L54.146 56.2074C54.0768 56.1923 54.0065 56.1823 53.9357 56.1774L44.71 55.5354C44.5505 55.5243 44.3902 55.5394 44.2355 55.58L43.3192 55.8207C42.5485 56.0231 42.0803 56.8037 42.2645 57.5789L46.7149 76.3044C46.8953 77.0634 46.4501 77.8309 45.7017 78.0511L36.0033 80.9055C35.4955 81.0549 34.9466 80.9192 34.5669 80.5505L31.2025 77.2829C30.9864 77.073 30.8401 76.8017 30.7836 76.5058L29.8888 71.8226C29.7451 71.0703 29.0468 70.5551 28.2856 70.6398L27.5349 70.7232C27.2304 70.7571 26.9441 70.8855 26.7162 71.0903L25.1964 72.4564L15.7183 79.4238C15.5108 79.5763 15.2668 79.6715 15.0109 79.6999L4.9652 80.8134C4.86486 80.8245 4.76365 80.8253 4.66316 80.8156L3.12308 80.6675C1.62074 80.5231 0.905521 82.4682 2.14355 83.3315L8.80477 87.976C9.2209 88.2662 9.75739 88.3208 10.2234 88.1204L12.2611 87.2443C12.9745 86.9375 13.3253 86.128 13.0613 85.3977L12.3043 83.3033C12.0754 82.6701 12.3069 81.9623 12.8658 81.5868L13.825 80.9423C14.0276 80.8062 14.2609 80.7228 14.5038 80.6996L22.9794 79.8906C23.4726 79.8435 23.9563 80.0486 24.2655 80.4359L27.0086 83.8728C27.3383 84.2859 27.8647 84.4897 28.3866 84.4064L31.4332 83.9199C32.4386 83.7594 33.2978 84.6466 33.1052 85.6462L31.6632 93.1317C31.5484 93.7274 31.8121 94.3322 32.3266 94.6536L35.8421 96.8494C36.2254 97.0888 36.6975 97.1382 37.122 96.9834L64.7172 86.9203C65.1054 86.7788 65.4158 86.4801 65.5724 86.0978L66.9924 82.6292C67.2717 81.947 66.9961 81.1637 66.3511 80.8067L66.2156 80.7317C66.0696 80.6509 65.9488 80.5313 65.8666 80.386C65.6335 79.9745 65.7568 79.4529 66.1495 79.1893L69.1846 77.1518C69.88 76.685 70.8244 76.8941 71.2578 77.6108L71.9106 78.6904C72.3578 79.43 73.3442 79.6247 74.0389 79.1105L79.785 74.8576C80.1787 74.5662 80.6919 74.4905 81.153 74.6558L83.4364 75.4746C83.9218 75.6486 84.2802 76.0648 84.3804 76.5707L84.6761 78.0641C84.8003 78.6913 85.3162 79.1658 85.9515 79.2372L89.9284 79.6838C90.6115 79.7606 91.1498 80.3013 91.2234 80.9848L91.648 84.9299C91.7165 85.5669 92.1905 86.0858 92.8188 86.2115L96.7568 86.9996C97.0154 87.0514 97.2832 87.0325 97.532 86.9448L102.118 85.3298C102.563 85.1732 103.055 85.2397 103.442 85.5086L104.959 86.5623C105.315 86.8093 105.762 86.8866 106.179 86.7736L108.147 86.2415C108.692 86.0941 109.104 85.6469 109.207 85.0917L110.577 77.6691C110.628 77.3928 110.758 77.137 110.95 76.932L112.606 75.1655C112.897 74.855 113.309 74.6863 113.734 74.703L115.66 74.7786C116.067 74.7945 116.449 74.9788 116.714 75.2872L117.326 75.9981C118.036 76.8217 119.363 76.6151 119.788 75.6149L120.565 73.7875C120.696 73.4802 120.928 73.2268 121.222 73.0689L123.739 71.7181C124.07 71.5405 124.456 71.4966 124.819 71.5955L125.843 71.8751C126.367 72.0181 126.927 71.8599 127.299 71.464L130.778 67.7594C131.007 67.5148 131.146 67.1989 131.171 66.8644L131.342 64.581C131.429 63.4155 132.777 62.8147 133.702 63.5293L137.346 66.3452C138.42 67.1751 137.888 68.8929 136.533 68.9709L134.448 69.0909C133.768 69.13 133.205 69.6314 133.087 70.3018L132.532 73.4622C132.452 73.9177 132.844 74.3167 133.301 74.245C133.676 74.1861 134.026 74.4484 134.074 74.825L134.198 75.7866C134.342 76.9107 135.653 77.4532 136.55 76.7606L136.887 76.4998C137.695 75.8765 138.876 76.2466 139.183 77.219L139.502 78.2291C139.734 78.9622 140.492 79.3922 141.24 79.2145L144.883 78.3493C145.622 78.1736 146.105 77.4621 145.995 76.7099L145.961 76.4712C145.855 75.7504 145.237 75.216 144.509 75.216H143.251C142.693 75.216 142.232 74.7824 142.197 74.2258C142.161 73.6493 142.595 73.1508 143.171 73.1071L149.37 72.6368C150.208 72.5732 150.929 73.2256 150.948 74.0661L151.013 76.8865C151.028 77.5629 150.579 78.1622 149.926 78.3373L141.996 80.4626C141.143 80.6913 140.684 81.6167 141.018 82.4346L144.751 91.5726C145.101 92.4306 144.578 93.3946 143.668 93.5685L143.453 93.6095C142.63 93.7667 142.106 94.5799 142.302 95.3943L142.862 97.7182C142.96 98.1227 143.263 98.446 143.661 98.5691C144.084 98.7003 144.399 99.058 144.474 99.495L145.832 107.331C145.986 108.221 146.9 108.762 147.755 108.468L153.914 106.35C154.189 106.256 154.486 106.245 154.768 106.32L158.118 107.21C158.3 107.259 158.471 107.341 158.621 107.454L167.786 114.317C167.987 114.468 168.224 114.564 168.473 114.597L178.082 115.866C178.309 115.895 178.525 115.978 178.714 116.106L185.962 121.024C186.353 121.289 186.888 121.063 186.97 120.597C187.059 120.092 187.671 119.883 188.051 120.229L208.889 139.209C209.544 139.805 210.574 139.69 211.081 138.963L215.789 132.21C216.122 131.731 216.708 131.495 217.28 131.61L219.273 132.009C219.628 132.08 219.945 132.28 220.161 132.57L224.846 138.85C224.922 138.951 224.984 139.061 225.031 139.178L228.483 147.739C228.564 147.938 228.599 148.154 228.587 148.369L228.542 149.18C228.505 149.853 228.014 150.414 227.351 150.54L220.58 151.827C220.395 151.862 220.219 151.932 220.061 152.034L207.665 159.992C206.977 160.433 206.783 161.35 207.231 162.032L209.954 166.174C210.184 166.524 210.253 166.956 210.144 167.36L208.419 173.783C208.333 174.1 208.143 174.38 207.879 174.577L206.695 175.462C206.432 175.658 206.112 175.76 205.784 175.753L201.999 175.666C201.276 175.649 200.649 176.163 200.522 176.875L200.174 178.82C200.046 179.541 199.405 180.057 198.673 180.028L194.794 179.877C194.095 179.849 193.541 180.461 193.639 181.154C193.699 181.582 193.999 181.937 194.411 182.067L198.228 183.275C198.838 183.468 199.253 184.034 199.253 184.673V184.693C199.253 185.197 198.995 185.665 198.569 185.934L187.673 192.815C186.993 193.245 186.786 194.141 187.208 194.825L196.128 209.303C196.531 209.957 196.361 210.813 195.737 211.262L193.37 212.969C192.868 213.331 192.647 213.97 192.818 214.565L192.849 214.67C192.987 215.152 193.363 215.53 193.844 215.672L195.778 216.241C196.117 216.341 196.41 216.56 196.6 216.859L202.557 226.195C202.952 226.814 202.829 227.629 202.268 228.104L196.556 232.94C196.35 233.114 196.196 233.342 196.112 233.599L193.44 241.677C193.406 241.782 193.383 241.889 193.373 241.999L193.115 244.697C193.038 245.5 193.624 246.214 194.426 246.296L196.921 246.552C197.669 246.629 198.238 247.259 198.238 248.012V248.798C198.238 250.308 200.243 250.834 200.984 249.518L201.405 248.77C201.73 248.194 202.508 248.073 202.991 248.524C203.466 248.967 204.227 248.86 204.562 248.305L204.691 248.092C204.948 247.665 204.92 247.124 204.62 246.725L203.781 245.611C203.522 245.267 203.427 244.828 203.521 244.408L203.53 244.371C203.729 243.479 204.687 242.984 205.53 243.338L205.677 243.4C206.172 243.608 206.741 243.529 207.161 243.194L212.529 238.906C212.96 238.562 213.162 238.005 213.051 237.464L212.716 235.838C212.605 235.294 212.809 234.734 213.245 234.391L225.798 224.483C225.956 224.358 226.087 224.202 226.182 224.025L232.802 211.692C232.878 211.551 232.93 211.399 232.956 211.241L234.121 204.311L235.018 186.63C235.048 186.04 234.597 185.536 234.008 185.499C233.27 185.454 232.796 184.697 233.078 184.014L234.814 179.794Z"/>
<path d="M147.759 167.108C147.189 166.459 146.185 166.441 145.592 167.068L136.507 176.669C136.179 177.016 135.702 177.182 135.229 177.112L132.989 176.784C132.076 176.65 131.512 175.717 131.817 174.847L133.791 169.22C134.016 168.576 134.657 168.173 135.335 168.247L137.982 168.537C138.492 168.593 138.995 168.378 139.307 167.97L142.946 163.214C143.266 162.796 143.338 162.238 143.133 161.753L141.964 158.976C141.887 158.793 141.774 158.629 141.632 158.491L139.913 156.827C139.36 156.291 139.314 155.42 139.809 154.83L140.894 153.535C141.121 153.266 141.436 153.086 141.784 153.03L143.397 152.769C143.992 152.673 144.468 152.222 144.596 151.634L146.309 143.788C146.376 143.482 146.539 143.204 146.776 142.997L147.614 142.264C147.823 142.081 147.975 141.843 148.054 141.577L150.458 133.465C150.585 133.036 150.509 132.572 150.252 132.205L145.538 125.498C145.306 125.169 144.951 124.949 144.553 124.89L140.975 124.358C140.215 124.245 139.497 124.737 139.328 125.485L135.333 143.129C135.06 144.334 133.51 144.683 132.748 143.71L129.547 139.626C128.935 138.845 127.742 138.884 127.181 139.702L125.447 142.234C125.064 142.794 124.347 143.018 123.713 142.776L122.605 142.352C122.204 142.199 121.755 142.229 121.378 142.435L118.38 144.072C117.366 144.625 117.359 146.079 118.368 146.641L127.587 151.778C128.288 152.169 128.545 153.05 128.164 153.756L125.499 158.695C125.311 159.043 124.991 159.3 124.611 159.409L122.373 160.048C121.804 160.211 121.389 160.7 121.319 161.288L121.316 161.319C121.236 161.996 120.701 162.528 120.024 162.605L113.253 163.375C112.965 163.408 112.693 163.525 112.472 163.712L111.948 164.155C111.075 164.893 109.731 164.393 109.552 163.264L109.075 160.244C109.012 159.845 108.787 159.49 108.454 159.262L108.41 159.232C108.01 158.958 107.502 158.899 107.05 159.075L106.027 159.472C105.779 159.568 105.561 159.731 105.398 159.942L98.5276 168.818C98.3003 169.112 98.3152 169.526 98.5631 169.803C98.7965 170.063 98.8249 170.449 98.6321 170.741L90.2352 183.457C89.8239 184.08 89.9457 184.912 90.5183 185.391L94.6093 188.812C95.3489 189.431 95.3011 190.582 94.5126 191.137L94.1851 191.368C93.0359 192.177 93.5719 193.983 94.9764 194.034L109.343 194.556C109.58 194.564 109.737 194.806 109.648 195.027C109.548 195.274 109.755 195.536 110.018 195.494L128.363 192.605C128.62 192.565 128.884 192.593 129.126 192.688L144.295 198.623C145.271 199.005 146.321 198.27 146.297 197.222L146.011 185.096C146.004 184.783 145.896 184.48 145.704 184.232L145.394 183.832C144.929 183.233 144.998 182.378 145.553 181.86L152.851 175.055C153.431 174.514 153.476 173.609 152.952 173.013L147.759 167.108Z"/>
</mask>
<path d="M234.814 179.794C234.9 179.585 234.937 179.357 234.92 179.131L234.038 166.858C234.013 166.506 233.738 166.222 233.386 166.184C233.039 166.148 232.767 165.872 232.735 165.524L231.323 150.043C231.308 149.873 231.263 149.708 231.191 149.554L222.951 131.965C222.589 131.192 222.995 130.278 223.81 130.028C224.632 129.777 225.036 128.853 224.663 128.079L222.079 122.713C222.014 122.577 221.97 122.433 221.948 122.284L219.97 108.429C219.883 107.818 219.422 107.326 218.817 107.2L216.546 106.727C215.814 106.574 215.314 105.896 215.384 105.152L217.066 87.4412C217.107 87.0103 217.336 86.6194 217.692 86.3732L218.851 85.5714C219.132 85.3771 219.337 85.0909 219.429 84.7621L223.843 69.0744C223.869 68.9821 223.904 68.8926 223.948 68.8071L228.48 59.8881C228.563 59.7255 228.615 59.5489 228.632 59.3675L228.767 58.0069C228.823 57.4375 229.205 56.9527 229.746 56.765L231.583 56.127C231.833 56.0402 232.055 55.8875 232.226 55.6849L235.05 52.3239C235.325 51.9962 235.444 51.5644 235.374 51.142L235.136 49.6931C235.094 49.4368 234.985 49.1963 234.819 48.9961L227.036 39.586C226.821 39.3257 226.522 39.1476 226.191 39.0819L220.459 37.9454C220.055 37.8652 219.636 37.9587 219.304 38.203L214.952 41.4068C214.551 41.7016 214.327 42.1793 214.357 42.6757L214.807 50.2271C214.833 50.6654 214.662 51.0924 214.339 51.3907L209.723 55.667C209.452 55.9183 209.096 56.0578 208.726 56.0578H206.217C205.953 56.0578 205.694 55.9867 205.468 55.8519L198.647 51.7979C198.482 51.6996 198.299 51.6347 198.108 51.6071L194.152 51.033C193.138 50.886 192.29 51.7965 192.508 52.7972L193.536 57.5193C193.624 57.9219 193.538 58.3429 193.3 58.6792L191.104 61.7814C190.714 62.332 190.75 63.0774 191.191 63.588L194.077 66.9293C194.541 67.4664 194.554 68.2587 194.107 68.8106L193.118 70.0342C192.794 70.435 192.284 70.6364 191.773 70.5648L177.984 68.6301C177.507 68.5632 177.093 68.2666 176.877 67.8364L175.224 64.5509C174.956 64.0184 175.037 63.3767 175.429 62.9275L182.729 54.5553C182.921 54.3355 183.042 54.0636 183.079 53.7743L185.133 37.4478C185.163 37.2128 185.249 36.9885 185.384 36.794L192.095 27.1338C192.55 26.4793 192.399 25.5816 191.755 25.1117L182.227 18.1551C182.083 18.0496 181.92 17.9713 181.747 17.9243L173.213 15.6032C172.8 15.4909 172.457 15.2037 172.273 14.817L167.248 4.23745C166.961 3.63483 166.305 3.30121 165.649 3.42549L161.486 4.21482C161.017 4.30361 160.535 4.15938 160.193 3.82804L157.915 1.62569C157.376 1.10428 156.53 1.07354 155.955 1.55444L123.042 29.0503C122.88 29.1856 122.691 29.2843 122.487 29.3398L107.18 33.5145C106.467 33.709 106.01 34.4034 106.113 35.1352L108.066 48.9545C108.08 49.0588 108.084 49.1644 108.076 49.2695L107.42 58.0143C107.401 58.2703 107.315 58.5168 107.17 58.7291L99.8167 69.5501C99.5045 70.0094 98.9597 70.2532 98.4092 70.1797L92.8926 69.4437C92.7324 69.4223 92.5699 69.4276 92.4115 69.4592L82.5728 71.4224C82.1133 71.5141 81.6376 71.3807 81.2926 71.0636L78.65 68.6336C78.4368 68.4376 78.1703 68.309 77.8841 68.2642L73.6912 67.607C73.2893 67.5441 72.9315 67.317 72.7035 66.9801L71.5234 65.2369C71.2379 64.8153 71.1915 64.2758 71.4007 63.8116L71.9035 62.6959C72.2426 61.9436 71.8947 61.0597 71.1338 60.7403L67.1309 59.0598C67.0483 59.0252 66.9626 58.9981 66.8751 58.9791L54.146 56.2074C54.0768 56.1923 54.0065 56.1823 53.9357 56.1774L44.71 55.5354C44.5505 55.5243 44.3902 55.5394 44.2355 55.58L43.3192 55.8207C42.5485 56.0231 42.0803 56.8037 42.2645 57.5789L46.7149 76.3044C46.8953 77.0634 46.4501 77.8309 45.7017 78.0511L36.0033 80.9055C35.4955 81.0549 34.9466 80.9192 34.5669 80.5505L31.2025 77.2829C30.9864 77.073 30.8401 76.8017 30.7836 76.5058L29.8888 71.8226C29.7451 71.0703 29.0468 70.5551 28.2856 70.6398L27.5349 70.7232C27.2304 70.7571 26.9441 70.8855 26.7162 71.0903L25.1964 72.4564L15.7183 79.4238C15.5108 79.5763 15.2668 79.6715 15.0109 79.6999L4.9652 80.8134C4.86486 80.8245 4.76365 80.8253 4.66316 80.8156L3.12308 80.6675C1.62074 80.5231 0.905521 82.4682 2.14355 83.3315L8.80477 87.976C9.2209 88.2662 9.75739 88.3208 10.2234 88.1204L12.2611 87.2443C12.9745 86.9375 13.3253 86.128 13.0613 85.3977L12.3043 83.3033C12.0754 82.6701 12.3069 81.9623 12.8658 81.5868L13.825 80.9423C14.0276 80.8062 14.2609 80.7228 14.5038 80.6996L22.9794 79.8906C23.4726 79.8435 23.9563 80.0486 24.2655 80.4359L27.0086 83.8728C27.3383 84.2859 27.8647 84.4897 28.3866 84.4064L31.4332 83.9199C32.4386 83.7594 33.2978 84.6466 33.1052 85.6462L31.6632 93.1317C31.5484 93.7274 31.8121 94.3322 32.3266 94.6536L35.8421 96.8494C36.2254 97.0888 36.6975 97.1382 37.122 96.9834L64.7172 86.9203C65.1054 86.7788 65.4158 86.4801 65.5724 86.0978L66.9924 82.6292C67.2717 81.947 66.9961 81.1637 66.3511 80.8067L66.2156 80.7317C66.0696 80.6509 65.9488 80.5313 65.8666 80.386C65.6335 79.9745 65.7568 79.4529 66.1495 79.1893L69.1846 77.1518C69.88 76.685 70.8244 76.8941 71.2578 77.6108L71.9106 78.6904C72.3578 79.43 73.3442 79.6247 74.0389 79.1105L79.785 74.8576C80.1787 74.5662 80.6919 74.4905 81.153 74.6558L83.4364 75.4746C83.9218 75.6486 84.2802 76.0648 84.3804 76.5707L84.6761 78.0641C84.8003 78.6913 85.3162 79.1658 85.9515 79.2372L89.9284 79.6838C90.6115 79.7606 91.1498 80.3013 91.2234 80.9848L91.648 84.9299C91.7165 85.5669 92.1905 86.0858 92.8188 86.2115L96.7568 86.9996C97.0154 87.0514 97.2832 87.0325 97.532 86.9448L102.118 85.3298C102.563 85.1732 103.055 85.2397 103.442 85.5086L104.959 86.5623C105.315 86.8093 105.762 86.8866 106.179 86.7736L108.147 86.2415C108.692 86.0941 109.104 85.6469 109.207 85.0917L110.577 77.6691C110.628 77.3928 110.758 77.137 110.95 76.932L112.606 75.1655C112.897 74.855 113.309 74.6863 113.734 74.703L115.66 74.7786C116.067 74.7945 116.449 74.9788 116.714 75.2872L117.326 75.9981C118.036 76.8217 119.363 76.6151 119.788 75.6149L120.565 73.7875C120.696 73.4802 120.928 73.2268 121.222 73.0689L123.739 71.7181C124.07 71.5405 124.456 71.4966 124.819 71.5955L125.843 71.8751C126.367 72.0181 126.927 71.8599 127.299 71.464L130.778 67.7594C131.007 67.5148 131.146 67.1989 131.171 66.8644L131.342 64.581C131.429 63.4155 132.777 62.8147 133.702 63.5293L137.346 66.3452C138.42 67.1751 137.888 68.8929 136.533 68.9709L134.448 69.0909C133.768 69.13 133.205 69.6314 133.087 70.3018L132.532 73.4622C132.452 73.9177 132.844 74.3167 133.301 74.245C133.676 74.1861 134.026 74.4484 134.074 74.825L134.198 75.7866C134.342 76.9107 135.653 77.4532 136.55 76.7606L136.887 76.4998C137.695 75.8765 138.876 76.2466 139.183 77.219L139.502 78.2291C139.734 78.9622 140.492 79.3922 141.24 79.2145L144.883 78.3493C145.622 78.1736 146.105 77.4621 145.995 76.7099L145.961 76.4712C145.855 75.7504 145.237 75.216 144.509 75.216H143.251C142.693 75.216 142.232 74.7824 142.197 74.2258C142.161 73.6493 142.595 73.1508 143.171 73.1071L149.37 72.6368C150.208 72.5732 150.929 73.2256 150.948 74.0661L151.013 76.8865C151.028 77.5629 150.579 78.1622 149.926 78.3373L141.996 80.4626C141.143 80.6913 140.684 81.6167 141.018 82.4346L144.751 91.5726C145.101 92.4306 144.578 93.3946 143.668 93.5685L143.453 93.6095C142.63 93.7667 142.106 94.5799 142.302 95.3943L142.862 97.7182C142.96 98.1227 143.263 98.446 143.661 98.5691C144.084 98.7003 144.399 99.058 144.474 99.495L145.832 107.331C145.986 108.221 146.9 108.762 147.755 108.468L153.914 106.35C154.189 106.256 154.486 106.245 154.768 106.32L158.118 107.21C158.3 107.259 158.471 107.341 158.621 107.454L167.786 114.317C167.987 114.468 168.224 114.564 168.473 114.597L178.082 115.866C178.309 115.895 178.525 115.978 178.714 116.106L185.962 121.024C186.353 121.289 186.888 121.063 186.97 120.597C187.059 120.092 187.671 119.883 188.051 120.229L208.889 139.209C209.544 139.805 210.574 139.69 211.081 138.963L215.789 132.21C216.122 131.731 216.708 131.495 217.28 131.61L219.273 132.009C219.628 132.08 219.945 132.28 220.161 132.57L224.846 138.85C224.922 138.951 224.984 139.061 225.031 139.178L228.483 147.739C228.564 147.938 228.599 148.154 228.587 148.369L228.542 149.18C228.505 149.853 228.014 150.414 227.351 150.54L220.58 151.827C220.395 151.862 220.219 151.932 220.061 152.034L207.665 159.992C206.977 160.433 206.783 161.35 207.231 162.032L209.954 166.174C210.184 166.524 210.253 166.956 210.144 167.36L208.419 173.783C208.333 174.1 208.143 174.38 207.879 174.577L206.695 175.462C206.432 175.658 206.112 175.76 205.784 175.753L201.999 175.666C201.276 175.649 200.649 176.163 200.522 176.875L200.174 178.82C200.046 179.541 199.405 180.057 198.673 180.028L194.794 179.877C194.095 179.849 193.541 180.461 193.639 181.154C193.699 181.582 193.999 181.937 194.411 182.067L198.228 183.275C198.838 183.468 199.253 184.034 199.253 184.673V184.693C199.253 185.197 198.995 185.665 198.569 185.934L187.673 192.815C186.993 193.245 186.786 194.141 187.208 194.825L196.128 209.303C196.531 209.957 196.361 210.813 195.737 211.262L193.37 212.969C192.868 213.331 192.647 213.97 192.818 214.565L192.849 214.67C192.987 215.152 193.363 215.53 193.844 215.672L195.778 216.241C196.117 216.341 196.41 216.56 196.6 216.859L202.557 226.195C202.952 226.814 202.829 227.629 202.268 228.104L196.556 232.94C196.35 233.114 196.196 233.342 196.112 233.599L193.44 241.677C193.406 241.782 193.383 241.889 193.373 241.999L193.115 244.697C193.038 245.5 193.624 246.214 194.426 246.296L196.921 246.552C197.669 246.629 198.238 247.259 198.238 248.012V248.798C198.238 250.308 200.243 250.834 200.984 249.518L201.405 248.77C201.73 248.194 202.508 248.073 202.991 248.524C203.466 248.967 204.227 248.86 204.562 248.305L204.691 248.092C204.948 247.665 204.92 247.124 204.62 246.725L203.781 245.611C203.522 245.267 203.427 244.828 203.521 244.408L203.53 244.371C203.729 243.479 204.687 242.984 205.53 243.338L205.677 243.4C206.172 243.608 206.741 243.529 207.161 243.194L212.529 238.906C212.96 238.562 213.162 238.005 213.051 237.464L212.716 235.838C212.605 235.294 212.809 234.734 213.245 234.391L225.798 224.483C225.956 224.358 226.087 224.202 226.182 224.025L232.802 211.692C232.878 211.551 232.93 211.399 232.956 211.241L234.121 204.311L235.018 186.63C235.048 186.04 234.597 185.536 234.008 185.499C233.27 185.454 232.796 184.697 233.078 184.014L234.814 179.794Z" fill="#F5F5F5"/>
<path d="M147.759 167.108C147.189 166.459 146.185 166.441 145.592 167.068L136.507 176.669C136.179 177.016 135.702 177.182 135.229 177.112L132.989 176.784C132.076 176.65 131.512 175.717 131.817 174.847L133.791 169.22C134.016 168.576 134.657 168.173 135.335 168.247L137.982 168.537C138.492 168.593 138.995 168.378 139.307 167.97L142.946 163.214C143.266 162.796 143.338 162.238 143.133 161.753L141.964 158.976C141.887 158.793 141.774 158.629 141.632 158.491L139.913 156.827C139.36 156.291 139.314 155.42 139.809 154.83L140.894 153.535C141.121 153.266 141.436 153.086 141.784 153.03L143.397 152.769C143.992 152.673 144.468 152.222 144.596 151.634L146.309 143.788C146.376 143.482 146.539 143.204 146.776 142.997L147.614 142.264C147.823 142.081 147.975 141.843 148.054 141.577L150.458 133.465C150.585 133.036 150.509 132.572 150.252 132.205L145.538 125.498C145.306 125.169 144.951 124.949 144.553 124.89L140.975 124.358C140.215 124.245 139.497 124.737 139.328 125.485L135.333 143.129C135.06 144.334 133.51 144.683 132.748 143.71L129.547 139.626C128.935 138.845 127.742 138.884 127.181 139.702L125.447 142.234C125.064 142.794 124.347 143.018 123.713 142.776L122.605 142.352C122.204 142.199 121.755 142.229 121.378 142.435L118.38 144.072C117.366 144.625 117.359 146.079 118.368 146.641L127.587 151.778C128.288 152.169 128.545 153.05 128.164 153.756L125.499 158.695C125.311 159.043 124.991 159.3 124.611 159.409L122.373 160.048C121.804 160.211 121.389 160.7 121.319 161.288L121.316 161.319C121.236 161.996 120.701 162.528 120.024 162.605L113.253 163.375C112.965 163.408 112.693 163.525 112.472 163.712L111.948 164.155C111.075 164.893 109.731 164.393 109.552 163.264L109.075 160.244C109.012 159.845 108.787 159.49 108.454 159.262L108.41 159.232C108.01 158.958 107.502 158.899 107.05 159.075L106.027 159.472C105.779 159.568 105.561 159.731 105.398 159.942L98.5276 168.818C98.3003 169.112 98.3152 169.526 98.5631 169.803C98.7965 170.063 98.8249 170.449 98.6321 170.741L90.2352 183.457C89.8239 184.08 89.9457 184.912 90.5183 185.391L94.6093 188.812C95.3489 189.431 95.3011 190.582 94.5126 191.137L94.1851 191.368C93.0359 192.177 93.5719 193.983 94.9764 194.034L109.343 194.556C109.58 194.564 109.737 194.806 109.648 195.027C109.548 195.274 109.755 195.536 110.018 195.494L128.363 192.605C128.62 192.565 128.884 192.593 129.126 192.688L144.295 198.623C145.271 199.005 146.321 198.27 146.297 197.222L146.011 185.096C146.004 184.783 145.896 184.48 145.704 184.232L145.394 183.832C144.929 183.233 144.998 182.378 145.553 181.86L152.851 175.055C153.431 174.514 153.476 173.609 152.952 173.013L147.759 167.108Z" fill="#F5F5F5"/>
<path d="M234.814 179.794C234.9 179.585 234.937 179.357 234.92 179.131L234.038 166.858C234.013 166.506 233.738 166.222 233.386 166.184C233.039 166.148 232.767 165.872 232.735 165.524L231.323 150.043C231.308 149.873 231.263 149.708 231.191 149.554L222.951 131.965C222.589 131.192 222.995 130.278 223.81 130.028C224.632 129.777 225.036 128.853 224.663 128.079L222.079 122.713C222.014 122.577 221.97 122.433 221.948 122.284L219.97 108.429C219.883 107.818 219.422 107.326 218.817 107.2L216.546 106.727C215.814 106.574 215.314 105.896 215.384 105.152L217.066 87.4412C217.107 87.0103 217.336 86.6194 217.692 86.3732L218.851 85.5714C219.132 85.3771 219.337 85.0909 219.429 84.7621L223.843 69.0744C223.869 68.9821 223.904 68.8926 223.948 68.8071L228.48 59.8881C228.563 59.7255 228.615 59.5489 228.632 59.3675L228.767 58.0069C228.823 57.4375 229.205 56.9527 229.746 56.765L231.583 56.127C231.833 56.0402 232.055 55.8875 232.226 55.6849L235.05 52.3239C235.325 51.9962 235.444 51.5644 235.374 51.142L235.136 49.6931C235.094 49.4368 234.985 49.1963 234.819 48.9961L227.036 39.586C226.821 39.3257 226.522 39.1476 226.191 39.0819L220.459 37.9454C220.055 37.8652 219.636 37.9587 219.304 38.203L214.952 41.4068C214.551 41.7016 214.327 42.1793 214.357 42.6757L214.807 50.2271C214.833 50.6654 214.662 51.0924 214.339 51.3907L209.723 55.667C209.452 55.9183 209.096 56.0578 208.726 56.0578H206.217C205.953 56.0578 205.694 55.9867 205.468 55.8519L198.647 51.7979C198.482 51.6996 198.299 51.6347 198.108 51.6071L194.152 51.033C193.138 50.886 192.29 51.7965 192.508 52.7972L193.536 57.5193C193.624 57.9219 193.538 58.3429 193.3 58.6792L191.104 61.7814C190.714 62.332 190.75 63.0774 191.191 63.588L194.077 66.9293C194.541 67.4664 194.554 68.2587 194.107 68.8106L193.118 70.0342C192.794 70.435 192.284 70.6364 191.773 70.5648L177.984 68.6301C177.507 68.5632 177.093 68.2666 176.877 67.8364L175.224 64.5509C174.956 64.0184 175.037 63.3767 175.429 62.9275L182.729 54.5553C182.921 54.3355 183.042 54.0636 183.079 53.7743L185.133 37.4478C185.163 37.2128 185.249 36.9885 185.384 36.794L192.095 27.1338C192.55 26.4793 192.399 25.5816 191.755 25.1117L182.227 18.1551C182.083 18.0496 181.92 17.9713 181.747 17.9243L173.213 15.6032C172.8 15.4909 172.457 15.2037 172.273 14.817L167.248 4.23745C166.961 3.63483 166.305 3.30121 165.649 3.42549L161.486 4.21482C161.017 4.30361 160.535 4.15938 160.193 3.82804L157.915 1.62569C157.376 1.10428 156.53 1.07354 155.955 1.55444L123.042 29.0503C122.88 29.1856 122.691 29.2843 122.487 29.3398L107.18 33.5145C106.467 33.709 106.01 34.4034 106.113 35.1352L108.066 48.9545C108.08 49.0588 108.084 49.1644 108.076 49.2695L107.42 58.0143C107.401 58.2703 107.315 58.5168 107.17 58.7291L99.8167 69.5501C99.5045 70.0094 98.9597 70.2532 98.4092 70.1797L92.8926 69.4437C92.7324 69.4223 92.5699 69.4276 92.4115 69.4592L82.5728 71.4224C82.1133 71.5141 81.6376 71.3807 81.2926 71.0636L78.65 68.6336C78.4368 68.4376 78.1703 68.309 77.8841 68.2642L73.6912 67.607C73.2893 67.5441 72.9315 67.317 72.7035 66.9801L71.5234 65.2369C71.2379 64.8153 71.1915 64.2758 71.4007 63.8116L71.9035 62.6959C72.2426 61.9436 71.8947 61.0597 71.1338 60.7403L67.1309 59.0598C67.0483 59.0252 66.9626 58.9981 66.8751 58.9791L54.146 56.2074C54.0768 56.1923 54.0065 56.1823 53.9357 56.1774L44.71 55.5354C44.5505 55.5243 44.3902 55.5394 44.2355 55.58L43.3192 55.8207C42.5485 56.0231 42.0803 56.8037 42.2645 57.5789L46.7149 76.3044C46.8953 77.0634 46.4501 77.8309 45.7017 78.0511L36.0033 80.9055C35.4955 81.0549 34.9466 80.9192 34.5669 80.5505L31.2025 77.2829C30.9864 77.073 30.8401 76.8017 30.7836 76.5058L29.8888 71.8226C29.7451 71.0703 29.0468 70.5551 28.2856 70.6398L27.5349 70.7232C27.2304 70.7571 26.9441 70.8855 26.7162 71.0903L25.1964 72.4564L15.7183 79.4238C15.5108 79.5763 15.2668 79.6715 15.0109 79.6999L4.9652 80.8134C4.86486 80.8245 4.76365 80.8253 4.66316 80.8156L3.12308 80.6675C1.62074 80.5231 0.905521 82.4682 2.14355 83.3315L8.80477 87.976C9.2209 88.2662 9.75739 88.3208 10.2234 88.1204L12.2611 87.2443C12.9745 86.9375 13.3253 86.128 13.0613 85.3977L12.3043 83.3033C12.0754 82.6701 12.3069 81.9623 12.8658 81.5868L13.825 80.9423C14.0276 80.8062 14.2609 80.7228 14.5038 80.6996L22.9794 79.8906C23.4726 79.8435 23.9563 80.0486 24.2655 80.4359L27.0086 83.8728C27.3383 84.2859 27.8647 84.4897 28.3866 84.4064L31.4332 83.9199C32.4386 83.7594 33.2978 84.6466 33.1052 85.6462L31.6632 93.1317C31.5484 93.7274 31.8121 94.3322 32.3266 94.6536L35.8421 96.8494C36.2254 97.0888 36.6975 97.1382 37.122 96.9834L64.7172 86.9203C65.1054 86.7788 65.4158 86.4801 65.5724 86.0978L66.9924 82.6292C67.2717 81.947 66.9961 81.1637 66.3511 80.8067L66.2156 80.7317C66.0696 80.6509 65.9488 80.5313 65.8666 80.386C65.6335 79.9745 65.7568 79.4529 66.1495 79.1893L69.1846 77.1518C69.88 76.685 70.8244 76.8941 71.2578 77.6108L71.9106 78.6904C72.3578 79.43 73.3442 79.6247 74.0389 79.1105L79.785 74.8576C80.1787 74.5662 80.6919 74.4905 81.153 74.6558L83.4364 75.4746C83.9218 75.6486 84.2802 76.0648 84.3804 76.5707L84.6761 78.0641C84.8003 78.6913 85.3162 79.1658 85.9515 79.2372L89.9284 79.6838C90.6115 79.7606 91.1498 80.3013 91.2234 80.9848L91.648 84.9299C91.7165 85.5669 92.1905 86.0858 92.8188 86.2115L96.7568 86.9996C97.0154 87.0514 97.2832 87.0325 97.532 86.9448L102.118 85.3298C102.563 85.1732 103.055 85.2397 103.442 85.5086L104.959 86.5623C105.315 86.8093 105.762 86.8866 106.179 86.7736L108.147 86.2415C108.692 86.0941 109.104 85.6469 109.207 85.0917L110.577 77.6691C110.628 77.3928 110.758 77.137 110.95 76.932L112.606 75.1655C112.897 74.855 113.309 74.6863 113.734 74.703L115.66 74.7786C116.067 74.7945 116.449 74.9788 116.714 75.2872L117.326 75.9981C118.036 76.8217 119.363 76.6151 119.788 75.6149L120.565 73.7875C120.696 73.4802 120.928 73.2268 121.222 73.0689L123.739 71.7181C124.07 71.5405 124.456 71.4966 124.819 71.5955L125.843 71.8751C126.367 72.0181 126.927 71.8599 127.299 71.464L130.778 67.7594C131.007 67.5148 131.146 67.1989 131.171 66.8644L131.342 64.581C131.429 63.4155 132.777 62.8147 133.702 63.5293L137.346 66.3452C138.42 67.1751 137.888 68.8929 136.533 68.9709L134.448 69.0909C133.768 69.13 133.205 69.6314 133.087 70.3018L132.532 73.4622C132.452 73.9177 132.844 74.3167 133.301 74.245C133.676 74.1861 134.026 74.4484 134.074 74.825L134.198 75.7866C134.342 76.9107 135.653 77.4532 136.55 76.7606L136.887 76.4998C137.695 75.8765 138.876 76.2466 139.183 77.219L139.502 78.2291C139.734 78.9622 140.492 79.3922 141.24 79.2145L144.883 78.3493C145.622 78.1736 146.105 77.4621 145.995 76.7099L145.961 76.4712C145.855 75.7504 145.237 75.216 144.509 75.216H143.251C142.693 75.216 142.232 74.7824 142.197 74.2258C142.161 73.6493 142.595 73.1508 143.171 73.1071L149.37 72.6368C150.208 72.5732 150.929 73.2256 150.948 74.0661L151.013 76.8865C151.028 77.5629 150.579 78.1622 149.926 78.3373L141.996 80.4626C141.143 80.6913 140.684 81.6167 141.018 82.4346L144.751 91.5726C145.101 92.4306 144.578 93.3946 143.668 93.5685L143.453 93.6095C142.63 93.7667 142.106 94.5799 142.302 95.3943L142.862 97.7182C142.96 98.1227 143.263 98.446 143.661 98.5691C144.084 98.7003 144.399 99.058 144.474 99.495L145.832 107.331C145.986 108.221 146.9 108.762 147.755 108.468L153.914 106.35C154.189 106.256 154.486 106.245 154.768 106.32L158.118 107.21C158.3 107.259 158.471 107.341 158.621 107.454L167.786 114.317C167.987 114.468 168.224 114.564 168.473 114.597L178.082 115.866C178.309 115.895 178.525 115.978 178.714 116.106L185.962 121.024C186.353 121.289 186.888 121.063 186.97 120.597C187.059 120.092 187.671 119.883 188.051 120.229L208.889 139.209C209.544 139.805 210.574 139.69 211.081 138.963L215.789 132.21C216.122 131.731 216.708 131.495 217.28 131.61L219.273 132.009C219.628 132.08 219.945 132.28 220.161 132.57L224.846 138.85C224.922 138.951 224.984 139.061 225.031 139.178L228.483 147.739C228.564 147.938 228.599 148.154 228.587 148.369L228.542 149.18C228.505 149.853 228.014 150.414 227.351 150.54L220.58 151.827C220.395 151.862 220.219 151.932 220.061 152.034L207.665 159.992C206.977 160.433 206.783 161.35 207.231 162.032L209.954 166.174C210.184 166.524 210.253 166.956 210.144 167.36L208.419 173.783C208.333 174.1 208.143 174.38 207.879 174.577L206.695 175.462C206.432 175.658 206.112 175.76 205.784 175.753L201.999 175.666C201.276 175.649 200.649 176.163 200.522 176.875L200.174 178.82C200.046 179.541 199.405 180.057 198.673 180.028L194.794 179.877C194.095 179.849 193.541 180.461 193.639 181.154C193.699 181.582 193.999 181.937 194.411 182.067L198.228 183.275C198.838 183.468 199.253 184.034 199.253 184.673V184.693C199.253 185.197 198.995 185.665 198.569 185.934L187.673 192.815C186.993 193.245 186.786 194.141 187.208 194.825L196.128 209.303C196.531 209.957 196.361 210.813 195.737 211.262L193.37 212.969C192.868 213.331 192.647 213.97 192.818 214.565L192.849 214.67C192.987 215.152 193.363 215.53 193.844 215.672L195.778 216.241C196.117 216.341 196.41 216.56 196.6 216.859L202.557 226.195C202.952 226.814 202.829 227.629 202.268 228.104L196.556 232.94C196.35 233.114 196.196 233.342 196.112 233.599L193.44 241.677C193.406 241.782 193.383 241.889 193.373 241.999L193.115 244.697C193.038 245.5 193.624 246.214 194.426 246.296L196.921 246.552C197.669 246.629 198.238 247.259 198.238 248.012V248.798C198.238 250.308 200.243 250.834 200.984 249.518L201.405 248.77C201.73 248.194 202.508 248.073 202.991 248.524C203.466 248.967 204.227 248.86 204.562 248.305L204.691 248.092C204.948 247.665 204.92 247.124 204.62 246.725L203.781 245.611C203.522 245.267 203.427 244.828 203.521 244.408L203.53 244.371C203.729 243.479 204.687 242.984 205.53 243.338L205.677 243.4C206.172 243.608 206.741 243.529 207.161 243.194L212.529 238.906C212.96 238.562 213.162 238.005 213.051 237.464L212.716 235.838C212.605 235.294 212.809 234.734 213.245 234.391L225.798 224.483C225.956 224.358 226.087 224.202 226.182 224.025L232.802 211.692C232.878 211.551 232.93 211.399 232.956 211.241L234.121 204.311L235.018 186.63C235.048 186.04 234.597 185.536 234.008 185.499C233.27 185.454 232.796 184.697 233.078 184.014L234.814 179.794Z" stroke="#D6D6D6" stroke-width="2" stroke-linejoin="round" mask="url(#path-1-outside-1_2_32)"/>
<path d="M147.759 167.108C147.189 166.459 146.185 166.441 145.592 167.068L136.507 176.669C136.179 177.016 135.702 177.182 135.229 177.112L132.989 176.784C132.076 176.65 131.512 175.717 131.817 174.847L133.791 169.22C134.016 168.576 134.657 168.173 135.335 168.247L137.982 168.537C138.492 168.593 138.995 168.378 139.307 167.97L142.946 163.214C143.266 162.796 143.338 162.238 143.133 161.753L141.964 158.976C141.887 158.793 141.774 158.629 141.632 158.491L139.913 156.827C139.36 156.291 139.314 155.42 139.809 154.83L140.894 153.535C141.121 153.266 141.436 153.086 141.784 153.03L143.397 152.769C143.992 152.673 144.468 152.222 144.596 151.634L146.309 143.788C146.376 143.482 146.539 143.204 146.776 142.997L147.614 142.264C147.823 142.081 147.975 141.843 148.054 141.577L150.458 133.465C150.585 133.036 150.509 132.572 150.252 132.205L145.538 125.498C145.306 125.169 144.951 124.949 144.553 124.89L140.975 124.358C140.215 124.245 139.497 124.737 139.328 125.485L135.333 143.129C135.06 144.334 133.51 144.683 132.748 143.71L129.547 139.626C128.935 138.845 127.742 138.884 127.181 139.702L125.447 142.234C125.064 142.794 124.347 143.018 123.713 142.776L122.605 142.352C122.204 142.199 121.755 142.229 121.378 142.435L118.38 144.072C117.366 144.625 117.359 146.079 118.368 146.641L127.587 151.778C128.288 152.169 128.545 153.05 128.164 153.756L125.499 158.695C125.311 159.043 124.991 159.3 124.611 159.409L122.373 160.048C121.804 160.211 121.389 160.7 121.319 161.288L121.316 161.319C121.236 161.996 120.701 162.528 120.024 162.605L113.253 163.375C112.965 163.408 112.693 163.525 112.472 163.712L111.948 164.155C111.075 164.893 109.731 164.393 109.552 163.264L109.075 160.244C109.012 159.845 108.787 159.49 108.454 159.262L108.41 159.232C108.01 158.958 107.502 158.899 107.05 159.075L106.027 159.472C105.779 159.568 105.561 159.731 105.398 159.942L98.5276 168.818C98.3003 169.112 98.3152 169.526 98.5631 169.803C98.7965 170.063 98.8249 170.449 98.6321 170.741L90.2352 183.457C89.8239 184.08 89.9457 184.912 90.5183 185.391L94.6093 188.812C95.3489 189.431 95.3011 190.582 94.5126 191.137L94.1851 191.368C93.0359 192.177 93.5719 193.983 94.9764 194.034L109.343 194.556C109.58 194.564 109.737 194.806 109.648 195.027C109.548 195.274 109.755 195.536 110.018 195.494L128.363 192.605C128.62 192.565 128.884 192.593 129.126 192.688L144.295 198.623C145.271 199.005 146.321 198.27 146.297 197.222L146.011 185.096C146.004 184.783 145.896 184.48 145.704 184.232L145.394 183.832C144.929 183.233 144.998 182.378 145.553 181.86L152.851 175.055C153.431 174.514 153.476 173.609 152.952 173.013L147.759 167.108Z" stroke="#D6D6D6" stroke-width="2" stroke-linejoin="round" mask="url(#path-1-outside-1_2_32)"/>
</svg>
