<svg width="168" height="200" viewBox="0 0 168 200" fill="none" xmlns="http://www.w3.org/2000/svg">
<mask id="path-1-outside-1_2_35" maskUnits="userSpaceOnUse" x="0.110107" y="-0.137909" width="168" height="200" fill="black">
<rect fill="white" x="0.110107" y="-0.137909" width="168" height="200"/>
<path d="M8.65213 103.557C8.6117 103.438 8.59396 103.313 8.59982 103.187L8.76749 99.6081C8.77639 99.4179 8.73082 99.2291 8.63612 99.0639L3.08241 89.3766C3.01507 89.2592 2.97229 89.1293 2.95665 88.9948L1.20205 73.9078C1.14824 73.4451 1.42103 73.0065 1.85986 72.8502L2.48139 72.6289C2.79349 72.5177 3.03029 72.2592 3.11369 71.9386L8.83711 49.9345C8.93778 49.5474 9.25936 49.2576 9.65474 49.1975L19.2381 47.742C19.5039 47.7016 19.7423 47.5559 19.8994 47.3377L22.3874 43.8827C22.6147 43.567 23.0046 43.4118 23.3867 43.4849L27.3234 44.2376C27.5878 44.2882 27.8614 44.23 28.0823 44.0763L31.3474 41.8046C31.626 41.6108 31.7873 41.2889 31.7757 40.9497L31.5179 33.3814C31.512 33.21 31.5504 33.04 31.6292 32.8877L34.9721 26.4303C35.0891 26.2043 35.2879 26.0314 35.528 25.9468L40.3458 24.2501C40.6488 24.1434 40.9846 24.1887 41.2484 24.372L43.1404 25.6861C43.3828 25.8544 43.6871 25.9071 43.9719 25.8301L46.4332 25.1644C46.8048 25.0639 47.0857 24.7592 47.1555 24.3807L48.6045 16.5341C48.6393 16.3458 48.7274 16.1714 48.8584 16.0317L50.7545 14.0096C50.9529 13.798 51.2334 13.683 51.5232 13.6943L53.8654 13.7863C54.1427 13.7971 54.4029 13.9227 54.584 14.1329L55.8188 15.5668C56.3022 16.1282 57.2069 15.9874 57.4968 15.3056L58.632 12.6361C58.7211 12.4267 58.8789 12.2539 59.0794 12.1463L61.905 10.6297C62.1307 10.5087 62.3942 10.4787 62.6412 10.5461L64.1168 10.9488C64.4739 11.0463 64.8556 10.9385 65.109 10.6686L68.8931 6.63879C69.0496 6.47209 69.1443 6.25677 69.1613 6.02873L69.4087 2.71508C69.4681 1.9207 70.3871 1.51118 71.0174 1.99826L76.3374 6.10915C77.0693 6.67478 76.7069 7.84562 75.7834 7.89878L72.081 8.1119C71.6178 8.13856 71.2338 8.4803 71.1535 8.93725L70.5344 12.462C70.4544 12.9174 70.8462 13.3164 71.3031 13.2447C71.6781 13.1858 72.0279 13.4481 72.0763 13.8247L72.3041 15.5944C72.4027 16.3605 73.2957 16.7303 73.9071 16.2583L75.4192 15.0907C75.9693 14.6659 76.7744 14.9181 76.9838 15.5809L77.6354 17.6429C77.7933 18.1426 78.3102 18.4357 78.82 18.3146L83.3011 17.2502C83.8052 17.1305 84.1344 16.6455 84.0595 16.1328L83.9046 15.0712C83.8329 14.5799 83.4116 14.2157 82.9151 14.2157H81.2006C80.6726 14.2157 80.2355 13.8051 80.2026 13.278L80.1959 13.1705C80.1618 12.6245 80.5728 12.1524 81.1183 12.111L87.8636 11.5993C88.435 11.556 88.9259 12.0006 88.939 12.5735L89.0236 16.2532C89.0342 16.7142 88.7281 17.1227 88.2827 17.242L79.4868 19.5996C78.9052 19.7555 78.5923 20.3862 78.82 20.9436L82.969 31.1007C83.2078 31.6856 82.8513 32.3426 82.2309 32.4611L80.9744 32.7012C80.4136 32.8083 80.0561 33.3625 80.1899 33.9177L80.8887 36.8175C80.9713 37.1603 81.2283 37.4342 81.565 37.5385L81.7683 37.6015C82.1273 37.7126 82.3936 38.0157 82.4578 38.386L83.928 46.8711C84.0331 47.4778 84.6562 47.8463 85.2384 47.646L92.0504 45.3038C92.238 45.2392 92.4407 45.232 92.6324 45.283L96.2083 46.2335C96.332 46.2664 96.4483 46.3227 96.5508 46.3995L105.886 53.3901C106.023 53.4928 106.185 53.5586 106.355 53.581L116.194 54.8797C116.349 54.9001 116.496 54.9562 116.625 55.0436L123.965 60.0233C124.356 60.2886 124.89 60.0625 124.972 59.5971C125.061 59.0914 125.673 58.8827 126.053 59.2285L147.285 78.567C147.732 78.9735 148.434 78.8948 148.779 78.3995L153.966 70.9584C154.193 70.6321 154.593 70.4716 154.983 70.5496L157.451 71.0437C157.693 71.0921 157.909 71.2284 158.057 71.4263L162.885 77.8981C162.936 77.967 162.979 78.0423 163.011 78.1221L166.524 86.8349C166.579 86.9711 166.604 87.1177 166.595 87.2644L166.524 88.5445C166.499 89.0033 166.164 89.3857 165.713 89.4715L158.493 90.8435C158.367 90.8674 158.247 90.9153 158.14 90.9844L145.27 99.2466C144.801 99.5472 144.668 100.172 144.974 100.637L148.071 105.349C148.228 105.587 148.275 105.882 148.201 106.158L146.379 112.939C146.321 113.155 146.191 113.346 146.011 113.48L144.568 114.558C144.389 114.691 144.171 114.761 143.947 114.756L139.602 114.657C139.109 114.645 138.681 114.995 138.594 115.481L138.105 118.22C138.018 118.712 137.581 119.063 137.082 119.044L132.65 118.871C132.027 118.846 131.534 119.392 131.621 120.009L131.652 120.23C131.705 120.611 131.973 120.928 132.34 121.044L136.557 122.377C136.972 122.509 137.255 122.895 137.255 123.331V123.95C137.255 124.293 137.079 124.613 136.789 124.796L125.285 132.062C124.822 132.354 124.68 132.965 124.968 133.432L134.358 148.672C134.633 149.119 134.517 149.701 134.092 150.008L131.106 152.161C130.763 152.408 130.613 152.843 130.73 153.249L130.922 153.916C131.016 154.245 131.272 154.502 131.6 154.599L133.948 155.29C134.179 155.358 134.379 155.508 134.508 155.711L140.779 165.538C141.048 165.96 140.964 166.516 140.582 166.84L134.458 172.024C134.318 172.143 134.213 172.299 134.155 172.474L131.426 180.727C131.403 180.798 131.387 180.871 131.38 180.946L131.073 184.159C131.021 184.706 131.42 185.193 131.967 185.249L135.343 185.595C135.853 185.647 136.241 186.077 136.241 186.59V193.07C136.241 193.281 136.174 193.486 136.05 193.657L132.825 198.107C132.53 198.514 131.98 198.639 131.538 198.4L127.849 196.397C127.601 196.262 127.422 196.03 127.355 195.756L125.906 189.85C125.81 189.46 125.492 189.166 125.096 189.101L122.272 188.641C121.804 188.564 121.454 188.171 121.434 187.697L121.033 178.473C121.011 177.959 120.602 177.546 120.088 177.518L117.97 177.405C117.64 177.387 117.341 177.208 117.169 176.926L114.16 171.982C114.049 171.798 113.881 171.655 113.682 171.575L96.6864 164.688C96.2709 164.52 96.0182 164.096 96.0682 163.65L96.274 161.817C96.2915 161.662 96.2722 161.504 96.2178 161.358L95.6076 159.714C95.523 159.486 95.3585 159.297 95.1446 159.181L82.6589 152.452C82.0855 152.143 81.9559 151.377 82.3957 150.896L85.4192 147.594C85.588 147.409 85.6816 147.169 85.6816 146.919V142.891C85.6816 142.791 85.6666 142.691 85.6371 142.596L84.3912 138.559C84.3641 138.471 84.3492 138.379 84.347 138.287L84.0093 123.942C84.0043 123.729 83.9309 123.522 83.7999 123.353L83.1345 122.495C82.8177 122.087 82.8646 121.504 83.2428 121.151L91.1842 113.745C91.5798 113.376 91.6104 112.76 91.2532 112.353L85.4229 105.723C85.0343 105.281 84.35 105.268 83.9455 105.696L74.3421 115.845C74.1182 116.082 73.793 116.195 73.4706 116.147L70.4299 115.701C69.8078 115.61 69.4234 114.974 69.6314 114.381L71.9151 107.869C72.0691 107.43 72.5054 107.156 72.9678 107.206L76.2455 107.566C76.5934 107.604 76.936 107.457 77.1487 107.179L81.113 101.998C81.3311 101.713 81.3797 101.333 81.2404 101.002L79.9284 97.8875C79.8761 97.7632 79.7992 97.6509 79.7023 97.5571L77.6018 95.5238C77.2249 95.159 77.194 94.5648 77.5311 94.1628L79.0077 92.4019C79.1619 92.218 79.3772 92.0956 79.6143 92.0573L81.7128 91.7179C82.1184 91.6523 82.4425 91.3454 82.5302 90.944L84.3434 82.6376C84.389 82.4285 84.5006 82.2395 84.6616 82.0985L85.7174 81.1741C85.8597 81.0496 85.9637 80.8872 86.0175 80.7059L88.5239 72.2486C88.6107 71.9558 88.5589 71.6394 88.3833 71.3895L83.4241 64.3333C83.2666 64.1091 83.024 63.9594 82.753 63.9192L78.5477 63.294C78.0302 63.217 77.5409 63.552 77.4253 64.0623L73.1181 83.0868C72.932 83.9085 71.8755 84.146 71.3557 83.4829L67.1553 78.1239C66.7384 77.5921 65.925 77.6183 65.5432 78.1758L63.2409 81.5381C62.9796 81.9197 62.4907 82.0723 62.0587 81.9072L60.4052 81.2751C60.1317 81.1706 59.8261 81.1912 59.5691 81.3315L55.638 83.477C54.947 83.8542 54.9426 84.845 55.6303 85.2283L65.991 91.0022C66.4688 91.2684 66.644 91.8692 66.3843 92.3505L63.4075 97.8676C63.2796 98.1047 63.0613 98.2802 62.8023 98.3542L60.0758 99.1337C59.6879 99.2446 59.4046 99.5778 59.3575 99.9784L59.2743 100.686C59.22 101.148 58.8555 101.511 58.3941 101.563L51.1143 102.391C50.9181 102.413 50.7328 102.493 50.5819 102.621L49.3164 103.69C48.7212 104.193 47.8049 103.852 47.6833 103.082L47.045 99.0447C47.0021 98.773 46.8492 98.531 46.6223 98.3757L46.2085 98.0924C45.9361 97.9059 45.5893 97.8658 45.2816 97.9853L43.9083 98.5186C43.7389 98.5843 43.5907 98.695 43.4795 98.8387L36.5294 107.818C36.302 108.112 36.3169 108.526 36.5648 108.803C36.7983 109.063 36.8266 109.448 36.6339 109.74L28.007 122.805C27.7267 123.229 27.8098 123.796 28.2 124.123L33.0777 128.202C33.5818 128.624 33.5492 129.409 33.0118 129.787L28.7185 132.809C28.656 132.853 28.5987 132.904 28.5478 132.961L27.2452 134.422C26.9687 134.732 26.5293 134.839 26.1413 134.69L16.9045 131.155C16.5175 131.006 16.262 130.635 16.262 130.221V129.326C16.262 129.041 16.1409 128.77 15.929 128.581L15.0772 127.818C14.717 127.495 14.6391 126.962 14.892 126.55L18.9069 120.011C19.1422 119.628 19.0928 119.135 18.7864 118.806L11.146 110.607C11.0498 110.504 10.9765 110.381 10.931 110.247L8.65213 103.557Z"/>
</mask>
<path d="M8.65213 103.557C8.6117 103.438 8.59396 103.313 8.59982 103.187L8.76749 99.6081C8.77639 99.4179 8.73082 99.2291 8.63612 99.0639L3.08241 89.3766C3.01507 89.2592 2.97229 89.1293 2.95665 88.9948L1.20205 73.9078C1.14824 73.4451 1.42103 73.0065 1.85986 72.8502L2.48139 72.6289C2.79349 72.5177 3.03029 72.2592 3.11369 71.9386L8.83711 49.9345C8.93778 49.5474 9.25936 49.2576 9.65474 49.1975L19.2381 47.742C19.5039 47.7016 19.7423 47.5559 19.8994 47.3377L22.3874 43.8827C22.6147 43.567 23.0046 43.4118 23.3867 43.4849L27.3234 44.2376C27.5878 44.2882 27.8614 44.23 28.0823 44.0763L31.3474 41.8046C31.626 41.6108 31.7873 41.2889 31.7757 40.9497L31.5179 33.3814C31.512 33.21 31.5504 33.04 31.6292 32.8877L34.9721 26.4303C35.0891 26.2043 35.2879 26.0314 35.528 25.9468L40.3458 24.2501C40.6488 24.1434 40.9846 24.1887 41.2484 24.372L43.1404 25.6861C43.3828 25.8544 43.6871 25.9071 43.9719 25.8301L46.4332 25.1644C46.8048 25.0639 47.0857 24.7592 47.1555 24.3807L48.6045 16.5341C48.6393 16.3458 48.7274 16.1714 48.8584 16.0317L50.7545 14.0096C50.9529 13.798 51.2334 13.683 51.5232 13.6943L53.8654 13.7863C54.1427 13.7971 54.4029 13.9227 54.584 14.1329L55.8188 15.5668C56.3022 16.1282 57.2069 15.9874 57.4968 15.3056L58.632 12.6361C58.7211 12.4267 58.8789 12.2539 59.0794 12.1463L61.905 10.6297C62.1307 10.5087 62.3942 10.4787 62.6412 10.5461L64.1168 10.9488C64.4739 11.0463 64.8556 10.9385 65.109 10.6686L68.8931 6.63879C69.0496 6.47209 69.1443 6.25677 69.1613 6.02873L69.4087 2.71508C69.4681 1.9207 70.3871 1.51118 71.0174 1.99826L76.3374 6.10915C77.0693 6.67478 76.7069 7.84562 75.7834 7.89878L72.081 8.1119C71.6178 8.13856 71.2338 8.4803 71.1535 8.93725L70.5344 12.462C70.4544 12.9174 70.8462 13.3164 71.3031 13.2447C71.6781 13.1858 72.0279 13.4481 72.0763 13.8247L72.3041 15.5944C72.4027 16.3605 73.2957 16.7303 73.9071 16.2583L75.4192 15.0907C75.9693 14.6659 76.7744 14.9181 76.9838 15.5809L77.6354 17.6429C77.7933 18.1426 78.3102 18.4357 78.82 18.3146L83.3011 17.2502C83.8052 17.1305 84.1344 16.6455 84.0595 16.1328L83.9046 15.0712C83.8329 14.5799 83.4116 14.2157 82.9151 14.2157H81.2006C80.6726 14.2157 80.2355 13.8051 80.2026 13.278L80.1959 13.1705C80.1618 12.6245 80.5728 12.1524 81.1183 12.111L87.8636 11.5993C88.435 11.556 88.9259 12.0006 88.939 12.5735L89.0236 16.2532C89.0342 16.7142 88.7281 17.1227 88.2827 17.242L79.4868 19.5996C78.9052 19.7555 78.5923 20.3862 78.82 20.9436L82.969 31.1007C83.2078 31.6856 82.8513 32.3426 82.2309 32.4611L80.9744 32.7012C80.4136 32.8083 80.0561 33.3625 80.1899 33.9177L80.8887 36.8175C80.9713 37.1603 81.2283 37.4342 81.565 37.5385L81.7683 37.6015C82.1273 37.7126 82.3936 38.0157 82.4578 38.386L83.928 46.8711C84.0331 47.4778 84.6562 47.8463 85.2384 47.646L92.0504 45.3038C92.238 45.2392 92.4407 45.232 92.6324 45.283L96.2083 46.2335C96.332 46.2664 96.4483 46.3227 96.5508 46.3995L105.886 53.3901C106.023 53.4928 106.185 53.5586 106.355 53.581L116.194 54.8797C116.349 54.9001 116.496 54.9562 116.625 55.0436L123.965 60.0233C124.356 60.2886 124.89 60.0625 124.972 59.5971C125.061 59.0914 125.673 58.8827 126.053 59.2285L147.285 78.567C147.732 78.9735 148.434 78.8948 148.779 78.3995L153.966 70.9584C154.193 70.6321 154.593 70.4716 154.983 70.5496L157.451 71.0437C157.693 71.0921 157.909 71.2284 158.057 71.4263L162.885 77.8981C162.936 77.967 162.979 78.0423 163.011 78.1221L166.524 86.8349C166.579 86.9711 166.604 87.1177 166.595 87.2644L166.524 88.5445C166.499 89.0033 166.164 89.3857 165.713 89.4715L158.493 90.8435C158.367 90.8674 158.247 90.9153 158.14 90.9844L145.27 99.2466C144.801 99.5472 144.668 100.172 144.974 100.637L148.071 105.349C148.228 105.587 148.275 105.882 148.201 106.158L146.379 112.939C146.321 113.155 146.191 113.346 146.011 113.48L144.568 114.558C144.389 114.691 144.171 114.761 143.947 114.756L139.602 114.657C139.109 114.645 138.681 114.995 138.594 115.481L138.105 118.22C138.018 118.712 137.581 119.063 137.082 119.044L132.65 118.871C132.027 118.846 131.534 119.392 131.621 120.009L131.652 120.23C131.705 120.611 131.973 120.928 132.34 121.044L136.557 122.377C136.972 122.509 137.255 122.895 137.255 123.331V123.95C137.255 124.293 137.079 124.613 136.789 124.796L125.285 132.062C124.822 132.354 124.68 132.965 124.968 133.432L134.358 148.672C134.633 149.119 134.517 149.701 134.092 150.008L131.106 152.161C130.763 152.408 130.613 152.843 130.73 153.249L130.922 153.916C131.016 154.245 131.272 154.502 131.6 154.599L133.948 155.29C134.179 155.358 134.379 155.508 134.508 155.711L140.779 165.538C141.048 165.96 140.964 166.516 140.582 166.84L134.458 172.024C134.318 172.143 134.213 172.299 134.155 172.474L131.426 180.727C131.403 180.798 131.387 180.871 131.38 180.946L131.073 184.159C131.021 184.706 131.42 185.193 131.967 185.249L135.343 185.595C135.853 185.647 136.241 186.077 136.241 186.59V193.07C136.241 193.281 136.174 193.486 136.05 193.657L132.825 198.107C132.53 198.514 131.98 198.639 131.538 198.4L127.849 196.397C127.601 196.262 127.422 196.03 127.355 195.756L125.906 189.85C125.81 189.46 125.492 189.166 125.096 189.101L122.272 188.641C121.804 188.564 121.454 188.171 121.434 187.697L121.033 178.473C121.011 177.959 120.602 177.546 120.088 177.518L117.97 177.405C117.64 177.387 117.341 177.208 117.169 176.926L114.16 171.982C114.049 171.798 113.881 171.655 113.682 171.575L96.6864 164.688C96.2709 164.52 96.0182 164.096 96.0682 163.65L96.274 161.817C96.2915 161.662 96.2722 161.504 96.2178 161.358L95.6076 159.714C95.523 159.486 95.3585 159.297 95.1446 159.181L82.6589 152.452C82.0855 152.143 81.9559 151.377 82.3957 150.896L85.4192 147.594C85.588 147.409 85.6816 147.169 85.6816 146.919V142.891C85.6816 142.791 85.6666 142.691 85.6371 142.596L84.3912 138.559C84.3641 138.471 84.3492 138.379 84.347 138.287L84.0093 123.942C84.0043 123.729 83.9309 123.522 83.7999 123.353L83.1345 122.495C82.8177 122.087 82.8646 121.504 83.2428 121.151L91.1842 113.745C91.5798 113.376 91.6104 112.76 91.2532 112.353L85.4229 105.723C85.0343 105.281 84.35 105.268 83.9455 105.696L74.3421 115.845C74.1182 116.082 73.793 116.195 73.4706 116.147L70.4299 115.701C69.8078 115.61 69.4234 114.974 69.6314 114.381L71.9151 107.869C72.0691 107.43 72.5054 107.156 72.9678 107.206L76.2455 107.566C76.5934 107.604 76.936 107.457 77.1487 107.179L81.113 101.998C81.3311 101.713 81.3797 101.333 81.2404 101.002L79.9284 97.8875C79.8761 97.7632 79.7992 97.6509 79.7023 97.5571L77.6018 95.5238C77.2249 95.159 77.194 94.5648 77.5311 94.1628L79.0077 92.4019C79.1619 92.218 79.3772 92.0956 79.6143 92.0573L81.7128 91.7179C82.1184 91.6523 82.4425 91.3454 82.5302 90.944L84.3434 82.6376C84.389 82.4285 84.5006 82.2395 84.6616 82.0985L85.7174 81.1741C85.8597 81.0496 85.9637 80.8872 86.0175 80.7059L88.5239 72.2486C88.6107 71.9558 88.5589 71.6394 88.3833 71.3895L83.4241 64.3333C83.2666 64.1091 83.024 63.9594 82.753 63.9192L78.5477 63.294C78.0302 63.217 77.5409 63.552 77.4253 64.0623L73.1181 83.0868C72.932 83.9085 71.8755 84.146 71.3557 83.4829L67.1553 78.1239C66.7384 77.5921 65.925 77.6183 65.5432 78.1758L63.2409 81.5381C62.9796 81.9197 62.4907 82.0723 62.0587 81.9072L60.4052 81.2751C60.1317 81.1706 59.8261 81.1912 59.5691 81.3315L55.638 83.477C54.947 83.8542 54.9426 84.845 55.6303 85.2283L65.991 91.0022C66.4688 91.2684 66.644 91.8692 66.3843 92.3505L63.4075 97.8676C63.2796 98.1047 63.0613 98.2802 62.8023 98.3542L60.0758 99.1337C59.6879 99.2446 59.4046 99.5778 59.3575 99.9784L59.2743 100.686C59.22 101.148 58.8555 101.511 58.3941 101.563L51.1143 102.391C50.9181 102.413 50.7328 102.493 50.5819 102.621L49.3164 103.69C48.7212 104.193 47.8049 103.852 47.6833 103.082L47.045 99.0447C47.0021 98.773 46.8492 98.531 46.6223 98.3757L46.2085 98.0924C45.9361 97.9059 45.5893 97.8658 45.2816 97.9853L43.9083 98.5186C43.7389 98.5843 43.5907 98.695 43.4795 98.8387L36.5294 107.818C36.302 108.112 36.3169 108.526 36.5648 108.803C36.7983 109.063 36.8266 109.448 36.6339 109.74L28.007 122.805C27.7267 123.229 27.8098 123.796 28.2 124.123L33.0777 128.202C33.5818 128.624 33.5492 129.409 33.0118 129.787L28.7185 132.809C28.656 132.853 28.5987 132.904 28.5478 132.961L27.2452 134.422C26.9687 134.732 26.5293 134.839 26.1413 134.69L16.9045 131.155C16.5175 131.006 16.262 130.635 16.262 130.221V129.326C16.262 129.041 16.1409 128.77 15.929 128.581L15.0772 127.818C14.717 127.495 14.6391 126.962 14.892 126.55L18.9069 120.011C19.1422 119.628 19.0928 119.135 18.7864 118.806L11.146 110.607C11.0498 110.504 10.9765 110.381 10.931 110.247L8.65213 103.557Z" fill="#F5F5F5"/>
<path d="M8.65213 103.557C8.6117 103.438 8.59396 103.313 8.59982 103.187L8.76749 99.6081C8.77639 99.4179 8.73082 99.2291 8.63612 99.0639L3.08241 89.3766C3.01507 89.2592 2.97229 89.1293 2.95665 88.9948L1.20205 73.9078C1.14824 73.4451 1.42103 73.0065 1.85986 72.8502L2.48139 72.6289C2.79349 72.5177 3.03029 72.2592 3.11369 71.9386L8.83711 49.9345C8.93778 49.5474 9.25936 49.2576 9.65474 49.1975L19.2381 47.742C19.5039 47.7016 19.7423 47.5559 19.8994 47.3377L22.3874 43.8827C22.6147 43.567 23.0046 43.4118 23.3867 43.4849L27.3234 44.2376C27.5878 44.2882 27.8614 44.23 28.0823 44.0763L31.3474 41.8046C31.626 41.6108 31.7873 41.2889 31.7757 40.9497L31.5179 33.3814C31.512 33.21 31.5504 33.04 31.6292 32.8877L34.9721 26.4303C35.0891 26.2043 35.2879 26.0314 35.528 25.9468L40.3458 24.2501C40.6488 24.1434 40.9846 24.1887 41.2484 24.372L43.1404 25.6861C43.3828 25.8544 43.6871 25.9071 43.9719 25.8301L46.4332 25.1644C46.8048 25.0639 47.0857 24.7592 47.1555 24.3807L48.6045 16.5341C48.6393 16.3458 48.7274 16.1714 48.8584 16.0317L50.7545 14.0096C50.9529 13.798 51.2334 13.683 51.5232 13.6943L53.8654 13.7863C54.1427 13.7971 54.4029 13.9227 54.584 14.1329L55.8188 15.5668C56.3022 16.1282 57.2069 15.9874 57.4968 15.3056L58.632 12.6361C58.7211 12.4267 58.8789 12.2539 59.0794 12.1463L61.905 10.6297C62.1307 10.5087 62.3942 10.4787 62.6412 10.5461L64.1168 10.9488C64.4739 11.0463 64.8556 10.9385 65.109 10.6686L68.8931 6.63879C69.0496 6.47209 69.1443 6.25677 69.1613 6.02873L69.4087 2.71508C69.4681 1.9207 70.3871 1.51118 71.0174 1.99826L76.3374 6.10915C77.0693 6.67478 76.7069 7.84562 75.7834 7.89878L72.081 8.1119C71.6178 8.13856 71.2338 8.4803 71.1535 8.93725L70.5344 12.462C70.4544 12.9174 70.8462 13.3164 71.3031 13.2447C71.6781 13.1858 72.0279 13.4481 72.0763 13.8247L72.3041 15.5944C72.4027 16.3605 73.2957 16.7303 73.9071 16.2583L75.4192 15.0907C75.9693 14.6659 76.7744 14.9181 76.9838 15.5809L77.6354 17.6429C77.7933 18.1426 78.3102 18.4357 78.82 18.3146L83.3011 17.2502C83.8052 17.1305 84.1344 16.6455 84.0595 16.1328L83.9046 15.0712C83.8329 14.5799 83.4116 14.2157 82.9151 14.2157H81.2006C80.6726 14.2157 80.2355 13.8051 80.2026 13.278L80.1959 13.1705C80.1618 12.6245 80.5728 12.1524 81.1183 12.111L87.8636 11.5993C88.435 11.556 88.9259 12.0006 88.939 12.5735L89.0236 16.2532C89.0342 16.7142 88.7281 17.1227 88.2827 17.242L79.4868 19.5996C78.9052 19.7555 78.5923 20.3862 78.82 20.9436L82.969 31.1007C83.2078 31.6856 82.8513 32.3426 82.2309 32.4611L80.9744 32.7012C80.4136 32.8083 80.0561 33.3625 80.1899 33.9177L80.8887 36.8175C80.9713 37.1603 81.2283 37.4342 81.565 37.5385L81.7683 37.6015C82.1273 37.7126 82.3936 38.0157 82.4578 38.386L83.928 46.8711C84.0331 47.4778 84.6562 47.8463 85.2384 47.646L92.0504 45.3038C92.238 45.2392 92.4407 45.232 92.6324 45.283L96.2083 46.2335C96.332 46.2664 96.4483 46.3227 96.5508 46.3995L105.886 53.3901C106.023 53.4928 106.185 53.5586 106.355 53.581L116.194 54.8797C116.349 54.9001 116.496 54.9562 116.625 55.0436L123.965 60.0233C124.356 60.2886 124.89 60.0625 124.972 59.5971C125.061 59.0914 125.673 58.8827 126.053 59.2285L147.285 78.567C147.732 78.9735 148.434 78.8948 148.779 78.3995L153.966 70.9584C154.193 70.6321 154.593 70.4716 154.983 70.5496L157.451 71.0437C157.693 71.0921 157.909 71.2284 158.057 71.4263L162.885 77.8981C162.936 77.967 162.979 78.0423 163.011 78.1221L166.524 86.8349C166.579 86.9711 166.604 87.1177 166.595 87.2644L166.524 88.5445C166.499 89.0033 166.164 89.3857 165.713 89.4715L158.493 90.8435C158.367 90.8674 158.247 90.9153 158.14 90.9844L145.27 99.2466C144.801 99.5472 144.668 100.172 144.974 100.637L148.071 105.349C148.228 105.587 148.275 105.882 148.201 106.158L146.379 112.939C146.321 113.155 146.191 113.346 146.011 113.48L144.568 114.558C144.389 114.691 144.171 114.761 143.947 114.756L139.602 114.657C139.109 114.645 138.681 114.995 138.594 115.481L138.105 118.22C138.018 118.712 137.581 119.063 137.082 119.044L132.65 118.871C132.027 118.846 131.534 119.392 131.621 120.009L131.652 120.23C131.705 120.611 131.973 120.928 132.34 121.044L136.557 122.377C136.972 122.509 137.255 122.895 137.255 123.331V123.95C137.255 124.293 137.079 124.613 136.789 124.796L125.285 132.062C124.822 132.354 124.68 132.965 124.968 133.432L134.358 148.672C134.633 149.119 134.517 149.701 134.092 150.008L131.106 152.161C130.763 152.408 130.613 152.843 130.73 153.249L130.922 153.916C131.016 154.245 131.272 154.502 131.6 154.599L133.948 155.29C134.179 155.358 134.379 155.508 134.508 155.711L140.779 165.538C141.048 165.96 140.964 166.516 140.582 166.84L134.458 172.024C134.318 172.143 134.213 172.299 134.155 172.474L131.426 180.727C131.403 180.798 131.387 180.871 131.38 180.946L131.073 184.159C131.021 184.706 131.42 185.193 131.967 185.249L135.343 185.595C135.853 185.647 136.241 186.077 136.241 186.59V193.07C136.241 193.281 136.174 193.486 136.05 193.657L132.825 198.107C132.53 198.514 131.98 198.639 131.538 198.4L127.849 196.397C127.601 196.262 127.422 196.03 127.355 195.756L125.906 189.85C125.81 189.46 125.492 189.166 125.096 189.101L122.272 188.641C121.804 188.564 121.454 188.171 121.434 187.697L121.033 178.473C121.011 177.959 120.602 177.546 120.088 177.518L117.97 177.405C117.64 177.387 117.341 177.208 117.169 176.926L114.16 171.982C114.049 171.798 113.881 171.655 113.682 171.575L96.6864 164.688C96.2709 164.52 96.0182 164.096 96.0682 163.65L96.274 161.817C96.2915 161.662 96.2722 161.504 96.2178 161.358L95.6076 159.714C95.523 159.486 95.3585 159.297 95.1446 159.181L82.6589 152.452C82.0855 152.143 81.9559 151.377 82.3957 150.896L85.4192 147.594C85.588 147.409 85.6816 147.169 85.6816 146.919V142.891C85.6816 142.791 85.6666 142.691 85.6371 142.596L84.3912 138.559C84.3641 138.471 84.3492 138.379 84.347 138.287L84.0093 123.942C84.0043 123.729 83.9309 123.522 83.7999 123.353L83.1345 122.495C82.8177 122.087 82.8646 121.504 83.2428 121.151L91.1842 113.745C91.5798 113.376 91.6104 112.76 91.2532 112.353L85.4229 105.723C85.0343 105.281 84.35 105.268 83.9455 105.696L74.3421 115.845C74.1182 116.082 73.793 116.195 73.4706 116.147L70.4299 115.701C69.8078 115.61 69.4234 114.974 69.6314 114.381L71.9151 107.869C72.0691 107.43 72.5054 107.156 72.9678 107.206L76.2455 107.566C76.5934 107.604 76.936 107.457 77.1487 107.179L81.113 101.998C81.3311 101.713 81.3797 101.333 81.2404 101.002L79.9284 97.8875C79.8761 97.7632 79.7992 97.6509 79.7023 97.5571L77.6018 95.5238C77.2249 95.159 77.194 94.5648 77.5311 94.1628L79.0077 92.4019C79.1619 92.218 79.3772 92.0956 79.6143 92.0573L81.7128 91.7179C82.1184 91.6523 82.4425 91.3454 82.5302 90.944L84.3434 82.6376C84.389 82.4285 84.5006 82.2395 84.6616 82.0985L85.7174 81.1741C85.8597 81.0496 85.9637 80.8872 86.0175 80.7059L88.5239 72.2486C88.6107 71.9558 88.5589 71.6394 88.3833 71.3895L83.4241 64.3333C83.2666 64.1091 83.024 63.9594 82.753 63.9192L78.5477 63.294C78.0302 63.217 77.5409 63.552 77.4253 64.0623L73.1181 83.0868C72.932 83.9085 71.8755 84.146 71.3557 83.4829L67.1553 78.1239C66.7384 77.5921 65.925 77.6183 65.5432 78.1758L63.2409 81.5381C62.9796 81.9197 62.4907 82.0723 62.0587 81.9072L60.4052 81.2751C60.1317 81.1706 59.8261 81.1912 59.5691 81.3315L55.638 83.477C54.947 83.8542 54.9426 84.845 55.6303 85.2283L65.991 91.0022C66.4688 91.2684 66.644 91.8692 66.3843 92.3505L63.4075 97.8676C63.2796 98.1047 63.0613 98.2802 62.8023 98.3542L60.0758 99.1337C59.6879 99.2446 59.4046 99.5778 59.3575 99.9784L59.2743 100.686C59.22 101.148 58.8555 101.511 58.3941 101.563L51.1143 102.391C50.9181 102.413 50.7328 102.493 50.5819 102.621L49.3164 103.69C48.7212 104.193 47.8049 103.852 47.6833 103.082L47.045 99.0447C47.0021 98.773 46.8492 98.531 46.6223 98.3757L46.2085 98.0924C45.9361 97.9059 45.5893 97.8658 45.2816 97.9853L43.9083 98.5186C43.7389 98.5843 43.5907 98.695 43.4795 98.8387L36.5294 107.818C36.302 108.112 36.3169 108.526 36.5648 108.803C36.7983 109.063 36.8266 109.448 36.6339 109.74L28.007 122.805C27.7267 123.229 27.8098 123.796 28.2 124.123L33.0777 128.202C33.5818 128.624 33.5492 129.409 33.0118 129.787L28.7185 132.809C28.656 132.853 28.5987 132.904 28.5478 132.961L27.2452 134.422C26.9687 134.732 26.5293 134.839 26.1413 134.69L16.9045 131.155C16.5175 131.006 16.262 130.635 16.262 130.221V129.326C16.262 129.041 16.1409 128.77 15.929 128.581L15.0772 127.818C14.717 127.495 14.6391 126.962 14.892 126.55L18.9069 120.011C19.1422 119.628 19.0928 119.135 18.7864 118.806L11.146 110.607C11.0498 110.504 10.9765 110.381 10.931 110.247L8.65213 103.557Z" stroke="#D6D6D6" stroke-width="2" stroke-linejoin="round" mask="url(#path-1-outside-1_2_35)"/>
</svg>
