<svg width="171" height="186" viewBox="0 0 171 186" fill="none" xmlns="http://www.w3.org/2000/svg">
<path d="M161.995 117.684L162.492 117.734C162.52 117.457 162.469 117.177 162.347 116.927L161.819 115.846C161.804 115.815 161.792 115.784 161.784 115.751L161.3 115.877L161.784 115.751L159.181 105.697C159.15 105.576 159.165 105.446 159.225 105.336L169.991 85.2981C170.314 84.698 170.191 83.9559 169.693 83.4912L169.316 83.1397C168.606 82.477 167.462 82.6541 166.986 83.5006L163.82 89.1238L160.421 93.8137C160.274 94.017 159.999 94.0795 159.778 93.9597L156.088 91.957C155.965 91.8898 155.875 91.7734 155.841 91.6366L154.392 85.7304C154.249 85.1462 153.771 84.7041 153.177 84.6073L150.353 84.1469C150.119 84.1087 149.945 83.9118 149.934 83.6751L149.533 74.4514C149.5 73.6799 148.886 73.06 148.115 73.0186L145.998 72.9051C145.833 72.8963 145.683 72.8067 145.597 72.6658L142.628 67.7869C142.424 67.452 142.098 67.2102 141.718 67.1133L140.568 66.82L140.444 67.3045L140.568 66.82C140.544 66.8139 140.521 66.8061 140.498 66.7965L124.868 60.232C124.664 60.1461 124.54 59.9357 124.565 59.7153L124.772 57.8725C124.798 57.6393 124.769 57.4032 124.687 57.1832L124.077 55.5394C123.95 55.1977 123.704 54.9139 123.383 54.741L110.897 48.0114C110.61 47.8569 110.545 47.4739 110.765 47.2337L113.789 43.9311C114.042 43.6546 114.182 43.2932 114.182 42.9182V38.8902C114.182 38.7402 114.16 38.5911 114.116 38.4478L113.638 38.5953L114.116 38.4478L112.971 34.7389C112.836 34.3022 112.51 33.9508 112.084 33.7843L95.193 27.1758C94.9451 27.0788 94.676 27.0495 94.4131 27.0909L76.1737 29.9632C76.2107 29.5029 75.8585 29.0732 75.3636 29.0552L57.1132 28.3923C56.6668 28.376 56.2365 28.5596 55.9392 28.8929L54.8729 30.0887C54.7346 30.2438 54.5149 30.2972 54.321 30.2229L45.0841 26.6873C44.8906 26.6132 44.7628 26.4275 44.7628 26.2203V25.3252C44.7628 24.8986 44.5812 24.4922 44.2634 24.2077L43.4116 23.445C43.2315 23.2838 43.1925 23.0169 43.319 22.8109L47.3339 16.2727C47.6867 15.6981 47.6128 14.9586 47.153 14.4652L39.5127 6.26556L39.1469 6.60642L39.5127 6.26556C39.4646 6.21393 39.428 6.15271 39.4052 6.08591L37.9516 1.81821C37.6055 0.80188 36.1103 1.04296 36.092 2.1065L31.8995 5.95648C31.3397 6.47052 31.2529 7.32196 31.6973 7.93845L35.2196 12.8248C35.2664 12.8897 35.2969 12.9649 35.3086 13.0441L36.4485 20.765L36.9431 20.692L36.4485 20.765C36.4679 20.8968 36.434 21.0309 36.3542 21.1376L36.7546 21.4371L36.3542 21.1376L32.7055 26.0145C32.5735 26.191 32.3415 26.2602 32.1344 26.185L9.26958 17.8786C8.47226 17.589 7.59358 18.0176 7.33105 18.8243L1.46433 36.8508C1.37668 37.1201 1.36707 37.4087 1.43661 37.6833L3.05488 44.0723C3.10838 44.2835 3.20725 44.4805 3.34461 44.6497L11.3146 54.4627L105.263 179.3C105.268 179.306 105.273 179.312 105.278 179.318L108.393 183.083C108.629 183.368 108.963 183.556 109.329 183.61L119.757 185.153C119.885 185.172 120.015 185.174 120.143 185.16L135.088 183.495C135.63 183.434 136.096 183.085 136.306 182.582L141.523 170.094C141.654 169.781 141.675 169.433 141.582 169.106L138.063 156.709C137.974 156.398 138.201 156.085 138.524 156.073L139.278 156.043C139.678 156.028 140.055 155.853 140.326 155.557L141.739 154.012C141.853 153.888 142.022 153.829 142.189 153.857L143.159 154.016C143.296 154.038 143.417 154.116 143.494 154.232L145.049 156.566C145.272 156.901 145.621 157.132 146.016 157.208L148.401 157.664C149.132 157.804 149.855 157.387 150.1 156.684L150.791 154.699C150.997 154.107 150.814 153.449 150.331 153.05L146.388 149.787C146.086 149.537 146.176 149.052 146.548 148.927L149.965 147.781C150.476 147.61 150.856 147.177 150.96 146.648L151.768 142.528C151.798 142.377 151.896 142.248 152.034 142.178L154.945 140.709C155.401 140.48 155.708 140.034 155.762 139.526L155.923 137.984C155.943 137.788 156.076 137.623 156.263 137.561L158.503 136.821C158.978 136.664 159.343 136.281 159.477 135.799L161.34 129.101C161.363 129.018 161.379 128.933 161.388 128.847L162.492 117.734L161.995 117.684Z" fill="#F5F5F5" stroke="#D6D6D6" stroke-linejoin="round"/>
</svg>
