<svg width="115" height="153" viewBox="0 0 115 153" fill="none" xmlns="http://www.w3.org/2000/svg">
<path d="M44.3317 139.505L44.5508 139.055L44.3317 139.505L53.9014 144.171C54.1786 144.306 54.2686 144.657 54.0904 144.909L54.0457 144.972L54.4538 145.261L54.0457 144.972C53.4175 145.859 53.9127 147.1 54.9795 147.31L79.3312 152.118C79.4886 152.149 79.65 152.155 79.8091 152.135L79.7467 151.639L79.8091 152.135L89.0167 150.976C89.2197 150.95 89.4153 150.883 89.5915 150.779L110.822 138.255C111.175 138.047 111.427 137.705 111.521 137.306L114.042 126.569C114.144 126.136 114.048 125.68 113.78 125.324L20.7284 1.67824C20.219 1.00134 19.2505 0.880322 18.5901 1.41106L0.974076 15.5702C0.253153 16.1497 0.656718 17.3103 1.576 17.3229L1.04998 51.722C1.04502 52.0461 1.14516 52.363 1.3354 52.6254L1.7402 52.3319L1.3354 52.6254L4.46261 56.9387C4.65339 57.2018 4.92447 57.3958 5.23506 57.4916L15.8341 60.7595C16.2165 60.8774 16.6301 60.8376 16.983 60.6491L18.832 59.6611C19.1057 59.5149 19.4451 59.6507 19.5424 59.9454L31.6419 96.6041C31.6581 96.6532 31.6665 96.7044 31.667 96.7561L31.8218 113.232C31.824 113.471 31.8834 113.706 31.995 113.918L34.1592 118.021C34.2883 118.266 34.4828 118.47 34.721 118.611L43.244 123.664C43.3959 123.754 43.4891 123.918 43.4891 124.094V138.156C43.4891 138.73 43.8161 139.253 44.3317 139.505Z" fill="#F5F5F5" stroke="#D6D6D6" stroke-linejoin="round"/>
</svg>
