<svg width="105" height="114" viewBox="0 0 105 114" fill="none" xmlns="http://www.w3.org/2000/svg">
<path d="M102.638 44.418L102.201 44.6604L102.638 44.418L91.3504 24.051C90.8453 23.1397 89.5877 23.0083 88.9051 23.7955L88.2446 24.5573C88.1573 24.6579 88.0334 24.7196 87.9004 24.7286L76.7106 25.4831C76.6593 25.4865 76.6078 25.4821 76.5579 25.4698L55.2128 20.2354C54.9371 20.1678 54.773 19.8845 54.8514 19.6117L59.2064 4.45902C59.3908 3.81752 59.1291 3.13137 58.5644 2.77556L55.5598 0.882566C54.9925 0.525123 54.2568 0.587638 53.7579 1.03568L45.9468 8.05093C45.4095 8.5334 45.3809 9.36567 45.8836 9.88397C45.9812 9.98455 45.9866 10.1427 45.8962 10.2498L46.2783 10.5723L45.8962 10.2498L39.4558 17.8786C39.3027 18.0599 39.0433 18.1087 38.8348 17.9953L35.8699 16.3829C35.2601 16.0513 34.5023 16.1814 34.0381 16.6976L33.3244 17.491C32.9012 17.9615 32.8188 18.6469 33.1185 19.2043L34.8115 22.3538C34.8825 22.4861 34.8904 22.6433 34.833 22.782L29.5264 35.5865C29.4677 35.7281 29.4311 35.8778 29.4178 36.0304L29.0951 39.7285C29.0826 39.8727 29.0909 40.0179 29.1199 40.1596L30.4233 46.5291C30.4334 46.5785 30.436 46.6291 30.431 46.6792L29.1032 59.9344C29.0966 60.0007 29.0768 60.065 29.0449 60.1235L20.576 75.6906C20.3797 76.0514 20.3827 76.4878 20.584 76.8459L20.6526 76.968C20.7016 77.0552 20.631 77.1611 20.5317 77.1494C19.7297 77.055 19.0935 77.8129 19.3254 78.5864L20.5477 82.6636C20.5868 82.7938 20.5711 82.9342 20.5044 83.0526L18.9391 85.8316C18.8776 85.9408 18.7774 86.0229 18.6582 86.0616L16.8888 86.6376L17.0381 87.0962L16.8888 86.6376C16.7348 86.6877 16.566 86.6602 16.436 86.5636L15.7715 86.0703C15.0595 85.5417 14.0469 85.7428 13.5909 86.5032L12.7998 87.8224C12.4145 88.465 12.5625 89.2934 13.1464 89.7629L15.2867 91.4835C15.5222 91.6728 15.5372 92.0262 15.3187 92.2348L13.3766 94.089C13.184 94.273 12.8809 94.2735 12.6875 94.0903L11.2278 92.7074C10.569 92.0832 9.51127 92.1824 8.98002 92.9181L5.85329 97.2483C5.68992 97.4746 5.59291 97.7419 5.57315 98.0203L5.22872 102.874C5.22352 102.948 5.20224 103.019 5.16639 103.083L0.901055 110.711L1.33746 110.955L0.901053 110.711C0.80667 110.88 0.745815 111.065 0.721843 111.257L0.70643 111.38C0.589409 112.317 1.35656 113.128 2.29841 113.063L6.3259 112.784C6.97066 112.739 7.51435 112.287 7.67517 111.661L10.8671 99.2367C10.8942 99.1311 10.9551 99.0373 11.0406 98.9695L16.4121 94.7076C16.5986 94.5596 16.8636 94.5636 17.0455 94.7173L29.5022 105.242C29.8572 105.542 30.3423 105.636 30.784 105.491C31.7679 105.169 32.0294 103.9 31.2533 103.214L23.9747 96.788C23.8953 96.7179 23.8402 96.6244 23.8174 96.521L22.8 91.9131C22.7635 91.748 22.813 91.5756 22.9315 91.4549L24.0645 90.3014C24.1585 90.2057 24.287 90.1518 24.4212 90.1518H27.6581C27.7867 90.1518 27.9105 90.2014 28.0035 90.2903L29.2912 91.5211C29.7795 91.9879 30.5259 92.0543 31.089 91.6811C31.4137 91.4659 31.8388 91.7414 31.7751 92.1257L31.2577 95.2468C31.0861 96.2819 32.003 97.1688 33.0319 96.9629L34.4207 96.685C34.4877 96.6716 34.5566 96.672 34.6234 96.6863L38.2214 97.4558C38.5628 97.5288 38.9189 97.4805 39.2284 97.3192L39.4408 97.2085C39.7049 97.0709 40.03 97.1932 40.1379 97.4708L40.5675 98.5762C40.9362 99.5247 42.1221 99.8387 42.9118 99.1969L50.4628 93.0594C50.625 92.9276 50.7578 92.7634 50.8527 92.5774L54.2818 85.86C54.475 85.4815 55.0223 85.5013 55.1877 85.8927L57.5387 91.457C57.8991 92.3099 58.9383 92.6358 59.7212 92.1416L73.8239 83.2382C74.0917 83.0691 74.2991 82.8195 74.4165 82.5253L76.3288 77.7283C76.4119 77.5197 76.6239 77.3922 76.8471 77.4163L80.6338 77.8266C81.0494 77.8717 81.465 77.7412 81.7803 77.4668L103.717 58.3709C104.091 58.0459 104.28 57.5578 104.222 57.0662L102.816 44.9719C102.794 44.7774 102.733 44.5892 102.638 44.418Z" fill="#F5F5F5" stroke="#D6D6D6" stroke-linejoin="round"/>
</svg>
